# MagicaVoxel @ Ephtracy

# group
o 

# material
mtllib Missile.mtl
usemtl palette

# normals
vn -1 0 0
vn 1 0 0
vn 0 0 1
vn 0 0 -1
vn 0 -1 0
vn 0 1 0

# texcoords
vt 0.841797 0.5
vt 0.994141 0.5

# verts
v -7.4 -1.2 8
v -7.4 -1.2 5.8
v -7.4 -0.6 5.8
v -7.4 -0.6 5.6
v -7.4 -0.5 8
v -7.4 -0.5 5.6
v -7 -0.6 5.6
v -7 -0.6 4.6
v -7 -0.5 5.6
v -7 -0.5 4.6
v -6.9 -1.2 5.8
v -6.9 -1.2 4.5
v -6.9 -0.6 5.8
v -6.9 -0.6 4.6
v -6.9 -0.5 4.6
v -6.9 -0.5 4.5
v -5.2 -1.2 4.5
v -5.2 -1.2 1.1
v -5.2 -0.6 1.1
v -5.2 -0.6 -1.1
v -5.2 -0.5 4.5
v -5.2 -0.5 -1.1
v -4.9 -1.2 1.1
v -4.9 -1.2 -1.1
v -4.9 -0.6 1.1
v -4.9 -0.6 -1.1
v -3.5 -1.5 8
v -3.5 -1.5 7.3
v -3.5 -1.5 -8
v -3.5 -1.2 8
v -3.5 -1.2 7.3
v -3.5 -1.2 -1.1
v -3.5 -1.1 -1.1
v -3.5 -1.1 -8
v -3.1 -1.1 -1.1
v -3.1 -1.1 -8
v -3.1 -0.5 8
v -3.1 -0.5 7.3
v -3.1 -0.5 -1.1
v -3.1 0.5 8
v -3.1 0.5 7.3
v -3.1 0.5 -8
v -2.7 0.5 8
v -2.7 0.5 7.3
v -2.7 0.5 -8
v -2.7 1.3 8
v -2.7 1.3 7.3
v -2.7 1.3 -8
v -2.3 1.3 8
v -2.3 1.3 7.3
v -2.3 1.3 -8
v -2.3 1.7 8
v -2.3 1.7 7.3
v -2.3 1.7 -8
v -1.9 1.7 8
v -1.9 1.7 7.3
v -1.9 1.7 -8
v -1.9 2.5 8
v -1.9 2.5 7.3
v -1.9 2.5 -8
v -1.5 2.5 8
v -1.5 2.5 7.3
v -1.5 2.5 -8
v -1.5 2.9 8
v -1.5 2.9 7.3
v -1.5 2.9 -8
v -1.1 2.9 8
v -1.1 2.9 7.3
v -1.1 2.9 -8
v -1.1 3.3 8
v -1.1 3.3 7.3
v -1.1 3.3 -8
v -0.7 3.3 8
v -0.7 3.3 7.3
v -0.7 3.3 -8
v -0.7 3.7 8
v -0.7 3.7 7.3
v -0.7 3.7 -8
v -0.3 3.7 8
v -0.3 3.7 7.3
v -0.3 3.7 3.6
v -0.3 5.6 5.5
v -0.3 5.6 3.6
v -0.3 6.5 8
v -0.3 6.5 5.5
v 0.3 3.7 8
v 0.3 3.7 7.3
v 0.3 3.7 3.6
v 0.3 5.6 5.5
v 0.3 5.6 3.6
v 0.3 6.5 8
v 0.3 6.5 5.5
v 0.7 3.3 8
v 0.7 3.3 7.3
v 0.7 3.3 -8
v 0.7 3.7 8
v 0.7 3.7 7.3
v 0.7 3.7 -8
v 1.1 2.9 8
v 1.1 2.9 7.3
v 1.1 2.9 -8
v 1.1 3.3 8
v 1.1 3.3 7.3
v 1.1 3.3 -8
v 1.5 2.5 8
v 1.5 2.5 7.3
v 1.5 2.5 -8
v 1.5 2.9 8
v 1.5 2.9 7.3
v 1.5 2.9 -8
v 1.9 1.7 8
v 1.9 1.7 7.3
v 1.9 1.7 -8
v 1.9 2.5 8
v 1.9 2.5 7.3
v 1.9 2.5 -8
v 2.3 1.3 8
v 2.3 1.3 7.3
v 2.3 1.3 -8
v 2.3 1.7 8
v 2.3 1.7 7.3
v 2.3 1.7 -8
v 2.7 0.5 8
v 2.7 0.5 7.3
v 2.7 0.5 -8
v 2.7 1.3 8
v 2.7 1.3 7.3
v 2.7 1.3 -8
v 3.1 -1.1 -1.1
v 3.1 -1.1 -8
v 3.1 -0.5 8
v 3.1 -0.5 7.3
v 3.1 -0.5 -1.1
v 3.1 0.5 8
v 3.1 0.5 7.3
v 3.1 0.5 -8
v 3.5 -1.5 8
v 3.5 -1.5 7.3
v 3.5 -1.5 -8
v 3.5 -1.2 8
v 3.5 -1.2 7.3
v 3.5 -1.2 -1.1
v 3.5 -1.1 -1.1
v 3.5 -1.1 -8
v 4.9 -1.2 1.1
v 4.9 -1.2 -1.1
v 4.9 -0.6 1.1
v 4.9 -0.6 -1.1
v 5.2 -1.2 4.5
v 5.2 -1.2 1.1
v 5.2 -0.6 1.1
v 5.2 -0.6 -1.1
v 5.2 -0.5 4.5
v 5.2 -0.5 -1.1
v 6.9 -1.2 5.8
v 6.9 -1.2 4.5
v 6.9 -0.6 5.8
v 6.9 -0.6 4.6
v 6.9 -0.5 4.6
v 6.9 -0.5 4.5
v 7 -0.6 5.6
v 7 -0.6 4.6
v 7 -0.5 5.6
v 7 -0.5 4.6
v 7.4 -1.2 8
v 7.4 -1.2 5.8
v 7.4 -0.6 5.8
v 7.4 -0.6 5.6
v 7.4 -0.5 8
v 7.4 -0.5 5.6
v -7.4 -1.2 8
v -7.4 -0.5 8
v -3.5 -1.5 8
v -3.5 -1.2 8
v -3.5 -1.1 8
v -3.1 -1.1 8
v -3.1 -0.5 8
v -3.1 0.5 8
v -2.7 0.5 8
v -2.7 1.3 8
v -2.3 1.3 8
v -2.3 1.7 8
v -1.9 1.7 8
v -1.9 2.5 8
v -1.5 2.5 8
v -1.5 2.9 8
v -1.1 2.9 8
v -1.1 3.3 8
v -0.7 3.3 8
v -0.7 3.7 8
v -0.3 3.7 8
v -0.3 6.5 8
v 0.3 3.7 8
v 0.3 6.5 8
v 0.7 3.3 8
v 0.7 3.7 8
v 1.1 2.9 8
v 1.1 3.3 8
v 1.5 2.5 8
v 1.5 2.9 8
v 1.9 1.7 8
v 1.9 2.5 8
v 2.3 1.3 8
v 2.3 1.7 8
v 2.7 0.5 8
v 2.7 1.3 8
v 3.1 -1.1 8
v 3.1 -0.5 8
v 3.1 0.5 8
v 3.5 -1.5 8
v 3.5 -1.2 8
v 3.5 -1.1 8
v 7.4 -1.2 8
v 7.4 -0.5 8
v -7.4 -1.2 5.8
v -7.4 -0.6 5.8
v -6.9 -1.2 5.8
v -6.9 -0.6 5.8
v 6.9 -1.2 5.8
v 6.9 -0.6 5.8
v 7.4 -1.2 5.8
v 7.4 -0.6 5.8
v -7.4 -0.6 5.6
v -7.4 -0.5 5.6
v -7 -0.6 5.6
v -7 -0.5 5.6
v 7 -0.6 5.6
v 7 -0.5 5.6
v 7.4 -0.6 5.6
v 7.4 -0.5 5.6
v -0.3 5.6 5.5
v -0.3 6.5 5.5
v 0.3 5.6 5.5
v 0.3 6.5 5.5
v -7 -0.6 4.6
v -7 -0.5 4.6
v -6.9 -0.6 4.6
v -6.9 -0.5 4.6
v 6.9 -0.6 4.6
v 6.9 -0.5 4.6
v 7 -0.6 4.6
v 7 -0.5 4.6
v -6.9 -1.2 4.5
v -6.9 -0.5 4.5
v -5.2 -1.2 4.5
v -5.2 -0.5 4.5
v 5.2 -1.2 4.5
v 5.2 -0.5 4.5
v 6.9 -1.2 4.5
v 6.9 -0.5 4.5
v -0.3 3.7 3.6
v -0.3 5.6 3.6
v 0.3 3.7 3.6
v 0.3 5.6 3.6
v -5.2 -1.2 1.1
v -5.2 -0.6 1.1
v -4.9 -1.2 1.1
v -4.9 -0.6 1.1
v 4.9 -1.2 1.1
v 4.9 -0.6 1.1
v 5.2 -1.2 1.1
v 5.2 -0.6 1.1
v -5.2 -0.6 -1.1
v -5.2 -0.5 -1.1
v -4.9 -1.2 -1.1
v -4.9 -0.6 -1.1
v -3.5 -1.2 -1.1
v -3.5 -1.1 -1.1
v -3.1 -1.1 -1.1
v -3.1 -0.5 -1.1
v 3.1 -1.1 -1.1
v 3.1 -0.5 -1.1
v 3.5 -1.2 -1.1
v 3.5 -1.1 -1.1
v 4.9 -1.2 -1.1
v 4.9 -0.6 -1.1
v 5.2 -0.6 -1.1
v 5.2 -0.5 -1.1
v -3.5 -1.5 -8
v -3.5 -1.1 -8
v -3.1 -1.1 -8
v -3.1 0.5 -8
v -2.7 0.5 -8
v -2.7 1.3 -8
v -2.3 1.3 -8
v -2.3 1.7 -8
v -1.9 1.7 -8
v -1.9 2.5 -8
v -1.5 2.5 -8
v -1.5 2.9 -8
v -1.1 2.9 -8
v -1.1 3.3 -8
v -0.7 3.3 -8
v -0.7 3.7 -8
v 0.7 3.3 -8
v 0.7 3.7 -8
v 1.1 2.9 -8
v 1.1 3.3 -8
v 1.5 2.5 -8
v 1.5 2.9 -8
v 1.9 1.7 -8
v 1.9 2.5 -8
v 2.3 1.3 -8
v 2.3 1.7 -8
v 2.7 0.5 -8
v 2.7 1.3 -8
v 3.1 -1.1 -8
v 3.1 0.5 -8
v 3.5 -1.5 -8
v 3.5 -1.1 -8
v -3.5 -1.5 8
v 3.5 -1.5 8
v -3.5 -1.5 7.3
v 3.5 -1.5 7.3
v -3.5 -1.5 -8
v 3.5 -1.5 -8
v -7.4 -1.2 8
v -3.5 -1.2 8
v 3.5 -1.2 8
v 7.4 -1.2 8
v -3.5 -1.2 7.3
v 3.5 -1.2 7.3
v -7.4 -1.2 5.8
v -6.9 -1.2 5.8
v 6.9 -1.2 5.8
v 7.4 -1.2 5.8
v -6.9 -1.2 4.5
v -5.2 -1.2 4.5
v 5.2 -1.2 4.5
v 6.9 -1.2 4.5
v -5.2 -1.2 1.1
v -4.9 -1.2 1.1
v 4.9 -1.2 1.1
v 5.2 -1.2 1.1
v -4.9 -1.2 -1.1
v -3.5 -1.2 -1.1
v 3.5 -1.2 -1.1
v 4.9 -1.2 -1.1
v -7.4 -0.6 5.8
v -6.9 -0.6 5.8
v 6.9 -0.6 5.8
v 7.4 -0.6 5.8
v -7.4 -0.6 5.6
v -7 -0.6 5.6
v 7 -0.6 5.6
v 7.4 -0.6 5.6
v -7 -0.6 4.6
v -6.9 -0.6 4.6
v 6.9 -0.6 4.6
v 7 -0.6 4.6
v -5.2 -0.6 1.1
v -4.9 -0.6 1.1
v 4.9 -0.6 1.1
v 5.2 -0.6 1.1
v -5.2 -0.6 -1.1
v -4.9 -0.6 -1.1
v 4.9 -0.6 -1.1
v 5.2 -0.6 -1.1
v -3.5 -1.1 -1.1
v -3.1 -1.1 -1.1
v 3.1 -1.1 -1.1
v 3.5 -1.1 -1.1
v -3.5 -1.1 -8
v -3.1 -1.1 -8
v 3.1 -1.1 -8
v 3.5 -1.1 -8
v -7.4 -0.5 8
v -3.1 -0.5 8
v 3.1 -0.5 8
v 7.4 -0.5 8
v -3.1 -0.5 7.3
v 3.1 -0.5 7.3
v -7.4 -0.5 5.6
v -7 -0.5 5.6
v 7 -0.5 5.6
v 7.4 -0.5 5.6
v -7 -0.5 4.6
v -6.9 -0.5 4.6
v 6.9 -0.5 4.6
v 7 -0.5 4.6
v -6.9 -0.5 4.5
v -5.2 -0.5 4.5
v 5.2 -0.5 4.5
v 6.9 -0.5 4.5
v -5.2 -0.5 -1.1
v -3.1 -0.5 -1.1
v 3.1 -0.5 -1.1
v 5.2 -0.5 -1.1
v -3.1 0.5 8
v -2.7 0.5 8
v 2.7 0.5 8
v 3.1 0.5 8
v -3.1 0.5 7.3
v -2.7 0.5 7.3
v 2.7 0.5 7.3
v 3.1 0.5 7.3
v -3.1 0.5 -8
v -2.7 0.5 -8
v 2.7 0.5 -8
v 3.1 0.5 -8
v -2.7 1.3 8
v -2.3 1.3 8
v 2.3 1.3 8
v 2.7 1.3 8
v -2.7 1.3 7.3
v -2.3 1.3 7.3
v 2.3 1.3 7.3
v 2.7 1.3 7.3
v -2.7 1.3 -8
v -2.3 1.3 -8
v 2.3 1.3 -8
v 2.7 1.3 -8
v -2.3 1.7 8
v -1.9 1.7 8
v 1.9 1.7 8
v 2.3 1.7 8
v -2.3 1.7 7.3
v -1.9 1.7 7.3
v 1.9 1.7 7.3
v 2.3 1.7 7.3
v -2.3 1.7 -8
v -1.9 1.7 -8
v 1.9 1.7 -8
v 2.3 1.7 -8
v -1.9 2.5 8
v -1.5 2.5 8
v 1.5 2.5 8
v 1.9 2.5 8
v -1.9 2.5 7.3
v -1.5 2.5 7.3
v 1.5 2.5 7.3
v 1.9 2.5 7.3
v -1.9 2.5 -8
v -1.5 2.5 -8
v 1.5 2.5 -8
v 1.9 2.5 -8
v -1.5 2.9 8
v -1.1 2.9 8
v 1.1 2.9 8
v 1.5 2.9 8
v -1.5 2.9 7.3
v -1.1 2.9 7.3
v 1.1 2.9 7.3
v 1.5 2.9 7.3
v -1.5 2.9 -8
v -1.1 2.9 -8
v 1.1 2.9 -8
v 1.5 2.9 -8
v -1.1 3.3 8
v -0.7 3.3 8
v 0.7 3.3 8
v 1.1 3.3 8
v -1.1 3.3 7.3
v -0.7 3.3 7.3
v 0.7 3.3 7.3
v 1.1 3.3 7.3
v -1.1 3.3 -8
v -0.7 3.3 -8
v 0.7 3.3 -8
v 1.1 3.3 -8
v -0.7 3.7 8
v -0.3 3.7 8
v 0.3 3.7 8
v 0.7 3.7 8
v -0.7 3.7 7.3
v -0.3 3.7 7.3
v 0.3 3.7 7.3
v 0.7 3.7 7.3
v -0.3 3.7 3.6
v 0.3 3.7 3.6
v -0.7 3.7 -8
v 0.7 3.7 -8
v -0.3 5.6 5.5
v 0.3 5.6 5.5
v -0.3 5.6 3.6
v 0.3 5.6 3.6
v -0.3 6.5 8
v 0.3 6.5 8
v -0.3 6.5 5.5
v 0.3 6.5 5.5

# faces
f 3/2/1 2/2/1 1/2/1
f 5/2/1 3/2/1 1/2/1
f 5/2/1 4/2/1 3/2/1
f 6/2/1 4/2/1 5/2/1
f 9/2/1 8/2/1 7/2/1
f 10/2/1 8/2/1 9/2/1
f 13/2/1 12/2/1 11/2/1
f 14/2/1 12/2/1 13/2/1
f 15/2/1 12/2/1 14/2/1
f 16/2/1 12/2/1 15/2/1
f 19/2/1 18/2/1 17/2/1
f 21/2/1 19/2/1 17/2/1
f 21/2/1 20/2/1 19/2/1
f 22/2/1 20/2/1 21/2/1
f 25/2/1 24/2/1 23/2/1
f 26/2/1 24/2/1 25/2/1
f 30/1/1 28/1/1 27/1/1
f 31/2/1 29/2/1 28/2/1
f 31/1/1 28/1/1 30/1/1
f 32/2/1 29/2/1 31/2/1
f 33/2/1 29/2/1 32/2/1
f 34/2/1 29/2/1 33/2/1
f 39/2/1 36/2/1 35/2/1
f 40/1/1 38/1/1 37/1/1
f 41/2/1 39/2/1 38/2/1
f 41/1/1 38/1/1 40/1/1
f 42/2/1 36/2/1 39/2/1
f 42/2/1 39/2/1 41/2/1
f 46/1/1 44/1/1 43/1/1
f 47/2/1 45/2/1 44/2/1
f 47/1/1 44/1/1 46/1/1
f 48/2/1 45/2/1 47/2/1
f 52/1/1 50/1/1 49/1/1
f 53/2/1 51/2/1 50/2/1
f 53/1/1 50/1/1 52/1/1
f 54/2/1 51/2/1 53/2/1
f 58/1/1 56/1/1 55/1/1
f 59/2/1 57/2/1 56/2/1
f 59/1/1 56/1/1 58/1/1
f 60/2/1 57/2/1 59/2/1
f 64/1/1 62/1/1 61/1/1
f 65/2/1 63/2/1 62/2/1
f 65/1/1 62/1/1 64/1/1
f 66/2/1 63/2/1 65/2/1
f 70/1/1 68/1/1 67/1/1
f 71/2/1 69/2/1 68/2/1
f 71/1/1 68/1/1 70/1/1
f 72/2/1 69/2/1 71/2/1
f 76/1/1 74/1/1 73/1/1
f 77/2/1 75/2/1 74/2/1
f 77/1/1 74/1/1 76/1/1
f 78/2/1 75/2/1 77/2/1
f 82/2/1 80/2/1 79/2/1
f 82/2/1 81/2/1 80/2/1
f 83/2/1 81/2/1 82/2/1
f 84/2/1 82/2/1 79/2/1
f 85/2/1 82/2/1 84/2/1
f 86/2/2 87/2/2 89/2/2
f 87/2/2 88/2/2 89/2/2
f 89/2/2 88/2/2 90/2/2
f 86/2/2 89/2/2 91/2/2
f 91/2/2 89/2/2 92/2/2
f 93/1/2 94/1/2 96/1/2
f 94/2/2 95/2/2 97/2/2
f 96/1/2 94/1/2 97/1/2
f 97/2/2 95/2/2 98/2/2
f 99/1/2 100/1/2 102/1/2
f 100/2/2 101/2/2 103/2/2
f 102/1/2 100/1/2 103/1/2
f 103/2/2 101/2/2 104/2/2
f 105/1/2 106/1/2 108/1/2
f 106/2/2 107/2/2 109/2/2
f 108/1/2 106/1/2 109/1/2
f 109/2/2 107/2/2 110/2/2
f 111/1/2 112/1/2 114/1/2
f 112/2/2 113/2/2 115/2/2
f 114/1/2 112/1/2 115/1/2
f 115/2/2 113/2/2 116/2/2
f 117/1/2 118/1/2 120/1/2
f 118/2/2 119/2/2 121/2/2
f 120/1/2 118/1/2 121/1/2
f 121/2/2 119/2/2 122/2/2
f 123/1/2 124/1/2 126/1/2
f 124/2/2 125/2/2 127/2/2
f 126/1/2 124/1/2 127/1/2
f 127/2/2 125/2/2 128/2/2
f 129/2/2 130/2/2 133/2/2
f 131/1/2 132/1/2 134/1/2
f 132/2/2 133/2/2 135/2/2
f 134/1/2 132/1/2 135/1/2
f 133/2/2 130/2/2 136/2/2
f 135/2/2 133/2/2 136/2/2
f 137/1/2 138/1/2 140/1/2
f 138/2/2 139/2/2 141/2/2
f 140/1/2 138/1/2 141/1/2
f 141/2/2 139/2/2 142/2/2
f 142/2/2 139/2/2 143/2/2
f 143/2/2 139/2/2 144/2/2
f 145/2/2 146/2/2 147/2/2
f 147/2/2 146/2/2 148/2/2
f 149/2/2 150/2/2 151/2/2
f 149/2/2 151/2/2 153/2/2
f 151/2/2 152/2/2 153/2/2
f 153/2/2 152/2/2 154/2/2
f 155/2/2 156/2/2 157/2/2
f 157/2/2 156/2/2 158/2/2
f 158/2/2 156/2/2 159/2/2
f 159/2/2 156/2/2 160/2/2
f 161/2/2 162/2/2 163/2/2
f 163/2/2 162/2/2 164/2/2
f 165/2/2 166/2/2 167/2/2
f 165/2/2 167/2/2 169/2/2
f 167/2/2 168/2/2 169/2/2
f 169/2/2 168/2/2 170/2/2
f 174/2/3 172/2/3 171/2/3
f 175/2/3 172/2/3 174/2/3
f 176/1/3 174/1/3 173/1/3
f 176/2/3 172/2/3 175/2/3
f 176/1/3 175/1/3 174/1/3
f 177/2/3 172/2/3 176/2/3
f 179/1/3 177/1/3 176/1/3
f 179/1/3 178/1/3 177/1/3
f 181/1/3 180/1/3 179/1/3
f 183/1/3 182/1/3 181/1/3
f 185/1/3 184/1/3 183/1/3
f 187/1/3 186/1/3 185/1/3
f 189/1/3 188/1/3 187/1/3
f 191/1/3 190/1/3 189/1/3
f 193/1/3 191/1/3 189/1/3
f 193/2/3 192/2/3 191/2/3
f 194/2/3 192/2/3 193/2/3
f 195/1/3 189/1/3 187/1/3
f 195/1/3 193/1/3 189/1/3
f 196/1/3 193/1/3 195/1/3
f 197/1/3 187/1/3 185/1/3
f 197/1/3 195/1/3 187/1/3
f 198/1/3 195/1/3 197/1/3
f 199/1/3 185/1/3 183/1/3
f 199/1/3 197/1/3 185/1/3
f 200/1/3 197/1/3 199/1/3
f 201/1/3 183/1/3 181/1/3
f 201/1/3 199/1/3 183/1/3
f 202/1/3 199/1/3 201/1/3
f 203/1/3 181/1/3 179/1/3
f 203/1/3 201/1/3 181/1/3
f 204/1/3 201/1/3 203/1/3
f 205/1/3 179/1/3 176/1/3
f 205/1/3 203/1/3 179/1/3
f 206/1/3 203/1/3 205/1/3
f 207/1/3 176/1/3 173/1/3
f 207/1/3 205/1/3 176/1/3
f 208/1/3 205/1/3 207/1/3
f 209/1/3 205/1/3 208/1/3
f 210/1/3 207/1/3 173/1/3
f 211/1/3 207/1/3 210/1/3
f 212/2/3 208/2/3 207/2/3
f 212/1/3 207/1/3 211/1/3
f 213/2/3 212/2/3 211/2/3
f 214/2/3 208/2/3 212/2/3
f 214/2/3 212/2/3 213/2/3
f 215/2/4 216/2/4 217/2/4
f 217/2/4 216/2/4 218/2/4
f 219/2/4 220/2/4 221/2/4
f 221/2/4 220/2/4 222/2/4
f 223/2/4 224/2/4 225/2/4
f 225/2/4 224/2/4 226/2/4
f 227/2/4 228/2/4 229/2/4
f 229/2/4 228/2/4 230/2/4
f 231/2/4 232/2/4 233/2/4
f 233/2/4 232/2/4 234/2/4
f 235/2/4 236/2/4 237/2/4
f 237/2/4 236/2/4 238/2/4
f 239/2/4 240/2/4 241/2/4
f 241/2/4 240/2/4 242/2/4
f 243/2/4 244/2/4 245/2/4
f 245/2/4 244/2/4 246/2/4
f 247/2/4 248/2/4 249/2/4
f 249/2/4 248/2/4 250/2/4
f 251/2/4 252/2/4 253/2/4
f 253/2/4 252/2/4 254/2/4
f 255/2/4 256/2/4 257/2/4
f 257/2/4 256/2/4 258/2/4
f 259/2/4 260/2/4 261/2/4
f 261/2/4 260/2/4 262/2/4
f 263/2/4 264/2/4 266/2/4
f 265/2/4 266/2/4 267/2/4
f 267/2/4 266/2/4 268/2/4
f 268/2/4 266/2/4 269/2/4
f 266/2/4 264/2/4 270/2/4
f 269/2/4 266/2/4 270/2/4
f 271/2/4 272/2/4 274/2/4
f 273/2/4 274/2/4 275/2/4
f 274/2/4 272/2/4 276/2/4
f 275/2/4 274/2/4 276/2/4
f 276/2/4 272/2/4 277/2/4
f 277/2/4 272/2/4 278/2/4
f 279/2/4 280/2/4 281/2/4
f 281/2/4 282/2/4 283/2/4
f 283/2/4 284/2/4 285/2/4
f 285/2/4 286/2/4 287/2/4
f 287/2/4 288/2/4 289/2/4
f 289/2/4 290/2/4 291/2/4
f 291/2/4 292/2/4 293/2/4
f 291/2/4 293/2/4 295/2/4
f 293/2/4 294/2/4 295/2/4
f 295/2/4 294/2/4 296/2/4
f 289/2/4 291/2/4 297/2/4
f 291/2/4 295/2/4 297/2/4
f 297/2/4 295/2/4 298/2/4
f 287/2/4 289/2/4 299/2/4
f 289/2/4 297/2/4 299/2/4
f 299/2/4 297/2/4 300/2/4
f 285/2/4 287/2/4 301/2/4
f 287/2/4 299/2/4 301/2/4
f 301/2/4 299/2/4 302/2/4
f 283/2/4 285/2/4 303/2/4
f 285/2/4 301/2/4 303/2/4
f 303/2/4 301/2/4 304/2/4
f 281/2/4 283/2/4 305/2/4
f 283/2/4 303/2/4 305/2/4
f 305/2/4 303/2/4 306/2/4
f 279/2/4 281/2/4 307/2/4
f 281/2/4 305/2/4 307/2/4
f 307/2/4 305/2/4 308/2/4
f 279/2/4 307/2/4 309/2/4
f 309/2/4 307/2/4 310/2/4
f 313/1/5 312/1/5 311/1/5
f 314/1/5 312/1/5 313/1/5
f 315/2/5 314/2/5 313/2/5
f 316/2/5 314/2/5 315/2/5
f 321/2/5 318/2/5 317/2/5
f 322/2/5 320/2/5 319/2/5
f 323/2/5 321/2/5 317/2/5
f 324/2/5 321/2/5 323/2/5
f 325/2/5 320/2/5 322/2/5
f 326/2/5 320/2/5 325/2/5
f 327/2/5 321/2/5 324/2/5
f 328/2/5 321/2/5 327/2/5
f 329/2/5 325/2/5 322/2/5
f 330/2/5 325/2/5 329/2/5
f 331/2/5 321/2/5 328/2/5
f 332/2/5 321/2/5 331/2/5
f 333/2/5 329/2/5 322/2/5
f 334/2/5 329/2/5 333/2/5
f 335/2/5 321/2/5 332/2/5
f 336/2/5 321/2/5 335/2/5
f 337/2/5 333/2/5 322/2/5
f 338/2/5 333/2/5 337/2/5
f 343/2/5 340/2/5 339/2/5
f 344/2/5 340/2/5 343/2/5
f 345/2/5 342/2/5 341/2/5
f 346/2/5 342/2/5 345/2/5
f 347/2/5 340/2/5 344/2/5
f 348/2/5 340/2/5 347/2/5
f 349/2/5 345/2/5 341/2/5
f 350/2/5 345/2/5 349/2/5
f 355/2/5 352/2/5 351/2/5
f 356/2/5 352/2/5 355/2/5
f 357/2/5 354/2/5 353/2/5
f 358/2/5 354/2/5 357/2/5
f 359/2/6 360/2/6 363/2/6
f 363/2/6 360/2/6 364/2/6
f 361/2/6 362/2/6 365/2/6
f 365/2/6 362/2/6 366/2/6
f 367/2/6 368/2/6 371/2/6
f 369/2/6 370/2/6 372/2/6
f 367/2/6 371/2/6 373/2/6
f 373/2/6 371/2/6 374/2/6
f 372/2/6 370/2/6 375/2/6
f 375/2/6 370/2/6 376/2/6
f 374/2/6 371/2/6 377/2/6
f 377/2/6 371/2/6 378/2/6
f 372/2/6 375/2/6 379/2/6
f 379/2/6 375/2/6 380/2/6
f 378/2/6 371/2/6 381/2/6
f 381/2/6 371/2/6 382/2/6
f 372/2/6 379/2/6 383/2/6
f 383/2/6 379/2/6 384/2/6
f 382/2/6 371/2/6 385/2/6
f 385/2/6 371/2/6 386/2/6
f 372/2/6 383/2/6 387/2/6
f 387/2/6 383/2/6 388/2/6
f 389/1/6 390/1/6 393/1/6
f 393/1/6 390/1/6 394/1/6
f 391/1/6 392/1/6 395/1/6
f 395/1/6 392/1/6 396/1/6
f 393/2/6 394/2/6 397/2/6
f 397/2/6 394/2/6 398/2/6
f 395/2/6 396/2/6 399/2/6
f 399/2/6 396/2/6 400/2/6
f 401/1/6 402/1/6 405/1/6
f 405/1/6 402/1/6 406/1/6
f 403/1/6 404/1/6 407/1/6
f 407/1/6 404/1/6 408/1/6
f 405/2/6 406/2/6 409/2/6
f 409/2/6 406/2/6 410/2/6
f 407/2/6 408/2/6 411/2/6
f 411/2/6 408/2/6 412/2/6
f 413/1/6 414/1/6 417/1/6
f 417/1/6 414/1/6 418/1/6
f 415/1/6 416/1/6 419/1/6
f 419/1/6 416/1/6 420/1/6
f 417/2/6 418/2/6 421/2/6
f 421/2/6 418/2/6 422/2/6
f 419/2/6 420/2/6 423/2/6
f 423/2/6 420/2/6 424/2/6
f 425/1/6 426/1/6 429/1/6
f 429/1/6 426/1/6 430/1/6
f 427/1/6 428/1/6 431/1/6
f 431/1/6 428/1/6 432/1/6
f 429/2/6 430/2/6 433/2/6
f 433/2/6 430/2/6 434/2/6
f 431/2/6 432/2/6 435/2/6
f 435/2/6 432/2/6 436/2/6
f 437/1/6 438/1/6 441/1/6
f 441/1/6 438/1/6 442/1/6
f 439/1/6 440/1/6 443/1/6
f 443/1/6 440/1/6 444/1/6
f 441/2/6 442/2/6 445/2/6
f 445/2/6 442/2/6 446/2/6
f 443/2/6 444/2/6 447/2/6
f 447/2/6 444/2/6 448/2/6
f 449/1/6 450/1/6 453/1/6
f 453/1/6 450/1/6 454/1/6
f 451/1/6 452/1/6 455/1/6
f 455/1/6 452/1/6 456/1/6
f 453/2/6 454/2/6 457/2/6
f 457/2/6 454/2/6 458/2/6
f 455/2/6 456/2/6 459/2/6
f 459/2/6 456/2/6 460/2/6
f 461/1/6 462/1/6 465/1/6
f 465/1/6 462/1/6 466/1/6
f 463/1/6 464/1/6 467/1/6
f 467/1/6 464/1/6 468/1/6
f 465/2/6 466/2/6 469/2/6
f 467/2/6 468/2/6 470/2/6
f 465/2/6 469/2/6 471/2/6
f 469/2/6 470/2/6 471/2/6
f 470/2/6 468/2/6 472/2/6
f 471/2/6 470/2/6 472/2/6
f 473/2/6 474/2/6 475/2/6
f 475/2/6 474/2/6 476/2/6
f 477/2/6 478/2/6 479/2/6
f 479/2/6 478/2/6 480/2/6
