# MagicaVoxel @ Ephtracy

# group
o 

# material
mtllib Tile.mtl
usemtl palette

# normals
vn -1 0 0
vn 1 0 0
vn 0 0 1
vn 0 0 -1
vn 0 -1 0
vn 0 1 0

# texcoords
vt 0.978516 0.5
vt 0.982422 0.5
vt 0.986328 0.5

# verts
v -0.5 -4 0.5
v -0.5 -4 0.4
v -0.5 -4 -0.4
v -0.5 -4 -0.5
v -0.5 -3.9 0.5
v -0.5 -3.9 0.4
v -0.5 -3.9 -0.4
v -0.5 -3.9 -0.5
v -0.5 -3.1 0.5
v -0.5 -3.1 0.4
v -0.5 -3.1 -0.4
v -0.5 -3.1 -0.5
v -0.5 -3 0.5
v -0.5 -3 0.4
v -0.5 -3 -0.4
v -0.5 -3 -0.5
v 0.5 -4 0.5
v 0.5 -4 0.4
v 0.5 -4 -0.4
v 0.5 -4 -0.5
v 0.5 -3.9 0.5
v 0.5 -3.9 0.4
v 0.5 -3.9 -0.4
v 0.5 -3.9 -0.5
v 0.5 -3.1 0.5
v 0.5 -3.1 0.4
v 0.5 -3.1 -0.4
v 0.5 -3.1 -0.5
v 0.5 -3 0.5
v 0.5 -3 0.4
v 0.5 -3 -0.4
v 0.5 -3 -0.5
v -0.5 -4 0.5
v -0.5 -3.9 0.5
v -0.5 -3.1 0.5
v -0.5 -3 0.5
v -0.4 -4 0.5
v -0.4 -3.9 0.5
v -0.4 -3.1 0.5
v -0.4 -3 0.5
v 0.4 -4 0.5
v 0.4 -3.9 0.5
v 0.4 -3.1 0.5
v 0.4 -3 0.5
v 0.5 -4 0.5
v 0.5 -3.9 0.5
v 0.5 -3.1 0.5
v 0.5 -3 0.5
v -0.5 -4 -0.5
v -0.5 -3.9 -0.5
v -0.5 -3.1 -0.5
v -0.5 -3 -0.5
v -0.4 -4 -0.5
v -0.4 -3.9 -0.5
v -0.4 -3.1 -0.5
v -0.4 -3 -0.5
v 0.4 -4 -0.5
v 0.4 -3.9 -0.5
v 0.4 -3.1 -0.5
v 0.4 -3 -0.5
v 0.5 -4 -0.5
v 0.5 -3.9 -0.5
v 0.5 -3.1 -0.5
v 0.5 -3 -0.5
v -0.5 -4 0.5
v -0.4 -4 0.5
v 0.4 -4 0.5
v 0.5 -4 0.5
v -0.5 -4 0.4
v -0.4 -4 0.4
v 0.4 -4 0.4
v 0.5 -4 0.4
v -0.5 -4 -0.4
v -0.4 -4 -0.4
v 0.4 -4 -0.4
v 0.5 -4 -0.4
v -0.5 -4 -0.5
v -0.4 -4 -0.5
v 0.4 -4 -0.5
v 0.5 -4 -0.5
v -0.5 -3 0.5
v -0.4 -3 0.5
v 0.4 -3 0.5
v 0.5 -3 0.5
v -0.5 -3 0.4
v -0.4 -3 0.4
v 0.4 -3 0.4
v 0.5 -3 0.4
v -0.5 -3 -0.4
v -0.4 -3 -0.4
v 0.4 -3 -0.4
v 0.5 -3 -0.4
v -0.5 -3 -0.5
v -0.4 -3 -0.5
v 0.4 -3 -0.5
v 0.5 -3 -0.5

# faces
f 5/2/1 2/2/1 1/2/1
f 6/3/1 3/3/1 2/3/1
f 6/2/1 2/2/1 5/2/1
f 7/2/1 4/2/1 3/2/1
f 7/3/1 3/3/1 6/3/1
f 8/2/1 4/2/1 7/2/1
f 9/3/1 6/3/1 5/3/1
f 10/1/1 7/1/1 6/1/1
f 10/3/1 6/3/1 9/3/1
f 11/3/1 8/3/1 7/3/1
f 11/1/1 7/1/1 10/1/1
f 12/3/1 8/3/1 11/3/1
f 13/2/1 10/2/1 9/2/1
f 14/3/1 11/3/1 10/3/1
f 14/2/1 10/2/1 13/2/1
f 15/2/1 12/2/1 11/2/1
f 15/3/1 11/3/1 14/3/1
f 16/2/1 12/2/1 15/2/1
f 17/2/2 18/2/2 21/2/2
f 18/3/2 19/3/2 22/3/2
f 21/2/2 18/2/2 22/2/2
f 19/2/2 20/2/2 23/2/2
f 22/3/2 19/3/2 23/3/2
f 23/2/2 20/2/2 24/2/2
f 21/3/2 22/3/2 25/3/2
f 22/1/2 23/1/2 26/1/2
f 25/3/2 22/3/2 26/3/2
f 23/3/2 24/3/2 27/3/2
f 26/1/2 23/1/2 27/1/2
f 27/3/2 24/3/2 28/3/2
f 25/2/2 26/2/2 29/2/2
f 26/3/2 27/3/2 30/3/2
f 29/2/2 26/2/2 30/2/2
f 27/2/2 28/2/2 31/2/2
f 30/3/2 27/3/2 31/3/2
f 31/2/2 28/2/2 32/2/2
f 37/2/3 34/2/3 33/2/3
f 38/3/3 35/3/3 34/3/3
f 38/2/3 34/2/3 37/2/3
f 39/2/3 36/2/3 35/2/3
f 39/3/3 35/3/3 38/3/3
f 40/2/3 36/2/3 39/2/3
f 41/3/3 38/3/3 37/3/3
f 42/1/3 39/1/3 38/1/3
f 42/3/3 38/3/3 41/3/3
f 43/3/3 40/3/3 39/3/3
f 43/1/3 39/1/3 42/1/3
f 44/3/3 40/3/3 43/3/3
f 45/2/3 42/2/3 41/2/3
f 46/3/3 43/3/3 42/3/3
f 46/2/3 42/2/3 45/2/3
f 47/2/3 44/2/3 43/2/3
f 47/3/3 43/3/3 46/3/3
f 48/2/3 44/2/3 47/2/3
f 49/2/4 50/2/4 53/2/4
f 50/3/4 51/3/4 54/3/4
f 53/2/4 50/2/4 54/2/4
f 51/2/4 52/2/4 55/2/4
f 54/3/4 51/3/4 55/3/4
f 55/2/4 52/2/4 56/2/4
f 53/3/4 54/3/4 57/3/4
f 54/1/4 55/1/4 58/1/4
f 57/3/4 54/3/4 58/3/4
f 55/3/4 56/3/4 59/3/4
f 58/1/4 55/1/4 59/1/4
f 59/3/4 56/3/4 60/3/4
f 57/2/4 58/2/4 61/2/4
f 58/3/4 59/3/4 62/3/4
f 61/2/4 58/2/4 62/2/4
f 59/2/4 60/2/4 63/2/4
f 62/3/4 59/3/4 63/3/4
f 63/2/4 60/2/4 64/2/4
f 69/2/5 66/2/5 65/2/5
f 70/3/5 67/3/5 66/3/5
f 70/2/5 66/2/5 69/2/5
f 71/2/5 68/2/5 67/2/5
f 71/3/5 67/3/5 70/3/5
f 72/2/5 68/2/5 71/2/5
f 73/3/5 70/3/5 69/3/5
f 74/1/5 71/1/5 70/1/5
f 74/3/5 70/3/5 73/3/5
f 75/3/5 72/3/5 71/3/5
f 75/1/5 71/1/5 74/1/5
f 76/3/5 72/3/5 75/3/5
f 77/2/5 74/2/5 73/2/5
f 78/3/5 75/3/5 74/3/5
f 78/2/5 74/2/5 77/2/5
f 79/2/5 76/2/5 75/2/5
f 79/3/5 75/3/5 78/3/5
f 80/2/5 76/2/5 79/2/5
f 81/2/6 82/2/6 85/2/6
f 82/3/6 83/3/6 86/3/6
f 85/2/6 82/2/6 86/2/6
f 83/2/6 84/2/6 87/2/6
f 86/3/6 83/3/6 87/3/6
f 87/2/6 84/2/6 88/2/6
f 85/3/6 86/3/6 89/3/6
f 86/1/6 87/1/6 90/1/6
f 89/3/6 86/3/6 90/3/6
f 87/3/6 88/3/6 91/3/6
f 90/1/6 87/1/6 91/1/6
f 91/3/6 88/3/6 92/3/6
f 89/2/6 90/2/6 93/2/6
f 90/3/6 91/3/6 94/3/6
f 93/2/6 90/2/6 94/2/6
f 91/2/6 92/2/6 95/2/6
f 94/3/6 91/3/6 95/3/6
f 95/2/6 92/2/6 96/2/6
