# MagicaVoxel @ Ephtracy

# group
o 

# material
mtllib Coin.mtl
usemtl palette

# normals
vn -1 0 0
vn 1 0 0
vn 0 0 1
vn 0 0 -1
vn 0 -1 0
vn 0 1 0

# texcoords
vt 0.00976562 0.5
vt 0.0136719 0.5
vt 0.0214844 0.5

# verts
v -0.5 0.2 0
v -0.5 0.2 -0.1
v -0.5 0.3 0
v -0.5 0.3 -0.1
v -0.5 0.8 0
v -0.5 0.8 -0.1
v -0.4 0.1 0
v -0.4 0.1 -0.1
v -0.4 0.2 0
v -0.4 0.2 -0.1
v -0.4 0.8 0
v -0.4 0.8 -0.1
v -0.4 0.9 0
v -0.4 0.9 -0.1
v -0.3 0 0
v -0.3 0 -0.1
v -0.3 0.1 0
v -0.3 0.1 -0.1
v -0.3 0.9 0
v -0.3 0.9 -0.1
v -0.3 1 0
v -0.3 1 -0.1
v 0.3 0 0
v 0.3 0 -0.1
v 0.3 0.1 0
v 0.3 0.1 -0.1
v 0.3 0.9 0
v 0.3 0.9 -0.1
v 0.3 1 0
v 0.3 1 -0.1
v 0.4 0.1 0
v 0.4 0.1 -0.1
v 0.4 0.2 0
v 0.4 0.2 -0.1
v 0.4 0.8 0
v 0.4 0.8 -0.1
v 0.4 0.9 0
v 0.4 0.9 -0.1
v 0.5 0.2 0
v 0.5 0.2 -0.1
v 0.5 0.7 0
v 0.5 0.7 -0.1
v 0.5 0.8 0
v 0.5 0.8 -0.1
v -0.5 0.2 0
v -0.5 0.3 0
v -0.5 0.8 0
v -0.4 0.1 0
v -0.4 0.2 0
v -0.4 0.3 0
v -0.4 0.8 0
v -0.4 0.9 0
v -0.3 0 0
v -0.3 0.1 0
v -0.3 0.2 0
v -0.3 0.9 0
v -0.3 1 0
v -0.2 0 0
v -0.2 0.1 0
v -0.2 0.3 0
v -0.2 0.4 0
v -0.2 0.5 0
v -0.2 0.8 0
v -0.1 0.6 0
v -0.1 0.7 0
v 0.1 0.4 0
v 0.1 0.5 0
v 0.2 0.3 0
v 0.2 0.6 0
v 0.2 0.7 0
v 0.2 0.8 0
v 0.2 0.9 0
v 0.2 1 0
v 0.3 0 0
v 0.3 0.1 0
v 0.3 0.8 0
v 0.3 0.9 0
v 0.3 1 0
v 0.4 0.1 0
v 0.4 0.2 0
v 0.4 0.7 0
v 0.4 0.8 0
v 0.4 0.9 0
v 0.5 0.2 0
v 0.5 0.7 0
v 0.5 0.8 0
v -0.5 0.2 -0.1
v -0.5 0.3 -0.1
v -0.5 0.8 -0.1
v -0.4 0.1 -0.1
v -0.4 0.2 -0.1
v -0.4 0.3 -0.1
v -0.4 0.8 -0.1
v -0.4 0.9 -0.1
v -0.3 0 -0.1
v -0.3 0.1 -0.1
v -0.3 0.2 -0.1
v -0.3 0.9 -0.1
v -0.3 1 -0.1
v -0.2 0 -0.1
v -0.2 0.1 -0.1
v -0.2 0.3 -0.1
v -0.2 0.4 -0.1
v -0.2 0.5 -0.1
v -0.2 0.8 -0.1
v -0.1 0.6 -0.1
v -0.1 0.7 -0.1
v 0.1 0.4 -0.1
v 0.1 0.5 -0.1
v 0.2 0.3 -0.1
v 0.2 0.6 -0.1
v 0.2 0.7 -0.1
v 0.2 0.8 -0.1
v 0.2 0.9 -0.1
v 0.2 1 -0.1
v 0.3 0 -0.1
v 0.3 0.1 -0.1
v 0.3 0.8 -0.1
v 0.3 0.9 -0.1
v 0.3 1 -0.1
v 0.4 0.1 -0.1
v 0.4 0.2 -0.1
v 0.4 0.7 -0.1
v 0.4 0.8 -0.1
v 0.4 0.9 -0.1
v 0.5 0.2 -0.1
v 0.5 0.7 -0.1
v 0.5 0.8 -0.1
v -0.3 0 0
v -0.2 0 0
v 0.3 0 0
v -0.3 0 -0.1
v -0.2 0 -0.1
v 0.3 0 -0.1
v -0.4 0.1 0
v -0.3 0.1 0
v 0.3 0.1 0
v 0.4 0.1 0
v -0.4 0.1 -0.1
v -0.3 0.1 -0.1
v 0.3 0.1 -0.1
v 0.4 0.1 -0.1
v -0.5 0.2 0
v -0.4 0.2 0
v 0.4 0.2 0
v 0.5 0.2 0
v -0.5 0.2 -0.1
v -0.4 0.2 -0.1
v 0.4 0.2 -0.1
v 0.5 0.2 -0.1
v -0.5 0.8 0
v -0.4 0.8 0
v 0.4 0.8 0
v 0.5 0.8 0
v -0.5 0.8 -0.1
v -0.4 0.8 -0.1
v 0.4 0.8 -0.1
v 0.5 0.8 -0.1
v -0.4 0.9 0
v -0.3 0.9 0
v 0.3 0.9 0
v 0.4 0.9 0
v -0.4 0.9 -0.1
v -0.3 0.9 -0.1
v 0.3 0.9 -0.1
v 0.4 0.9 -0.1
v -0.3 1 0
v 0.2 1 0
v 0.3 1 0
v -0.3 1 -0.1
v 0.2 1 -0.1
v 0.3 1 -0.1

# faces
f 3/1/1 2/1/1 1/1/1
f 4/1/1 2/1/1 3/1/1
f 5/3/1 4/3/1 3/3/1
f 6/3/1 4/3/1 5/3/1
f 9/1/1 8/1/1 7/1/1
f 10/1/1 8/1/1 9/1/1
f 13/3/1 12/3/1 11/3/1
f 14/3/1 12/3/1 13/3/1
f 17/1/1 16/1/1 15/1/1
f 18/1/1 16/1/1 17/1/1
f 21/3/1 20/3/1 19/3/1
f 22/3/1 20/3/1 21/3/1
f 23/3/2 24/3/2 25/3/2
f 25/3/2 24/3/2 26/3/2
f 27/1/2 28/1/2 29/1/2
f 29/1/2 28/1/2 30/1/2
f 31/3/2 32/3/2 33/3/2
f 33/3/2 32/3/2 34/3/2
f 35/1/2 36/1/2 37/1/2
f 37/1/2 36/1/2 38/1/2
f 39/3/2 40/3/2 41/3/2
f 41/3/2 40/3/2 42/3/2
f 41/1/2 42/1/2 43/1/2
f 43/1/2 42/1/2 44/1/2
f 49/1/3 46/1/3 45/1/3
f 50/3/3 47/3/3 46/3/3
f 50/1/3 46/1/3 49/1/3
f 51/3/3 47/3/3 50/3/3
f 54/1/3 49/1/3 48/1/3
f 55/3/3 52/3/3 51/3/3
f 55/3/3 50/3/3 49/3/3
f 55/1/3 49/1/3 54/1/3
f 55/3/3 51/3/3 50/3/3
f 56/3/3 52/3/3 55/3/3
f 58/1/3 54/1/3 53/1/3
f 59/3/3 57/3/3 56/3/3
f 59/1/3 54/1/3 58/1/3
f 59/3/3 55/3/3 54/3/3
f 59/3/3 56/3/3 55/3/3
f 60/3/3 57/3/3 59/3/3
f 61/3/3 57/3/3 60/3/3
f 62/3/3 57/3/3 61/3/3
f 63/3/3 57/3/3 62/3/3
f 64/2/3 63/2/3 62/2/3
f 65/2/3 63/2/3 64/2/3
f 66/2/3 61/2/3 60/2/3
f 66/3/3 62/3/3 61/3/3
f 67/2/3 64/2/3 62/2/3
f 67/3/3 62/3/3 66/3/3
f 68/3/3 59/3/3 58/3/3
f 68/3/3 60/3/3 59/3/3
f 68/2/3 67/2/3 66/2/3
f 68/2/3 66/2/3 60/2/3
f 69/2/3 64/2/3 67/2/3
f 69/2/3 67/2/3 68/2/3
f 69/3/3 65/3/3 64/3/3
f 70/2/3 63/2/3 65/2/3
f 70/3/3 65/3/3 69/3/3
f 71/3/3 57/3/3 63/3/3
f 71/2/3 63/2/3 70/2/3
f 72/3/3 57/3/3 71/3/3
f 73/3/3 57/3/3 72/3/3
f 74/3/3 68/3/3 58/3/3
f 74/3/3 70/3/3 69/3/3
f 74/3/3 69/3/3 68/3/3
f 74/3/3 72/3/3 71/3/3
f 74/3/3 71/3/3 70/3/3
f 75/3/3 72/3/3 74/3/3
f 76/3/3 72/3/3 75/3/3
f 77/1/3 73/1/3 72/1/3
f 77/3/3 72/3/3 76/3/3
f 78/1/3 73/1/3 77/1/3
f 79/3/3 76/3/3 75/3/3
f 80/3/3 76/3/3 79/3/3
f 81/3/3 76/3/3 80/3/3
f 82/1/3 77/1/3 76/1/3
f 82/3/3 76/3/3 81/3/3
f 83/1/3 77/1/3 82/1/3
f 84/3/3 81/3/3 80/3/3
f 85/1/3 82/1/3 81/1/3
f 85/3/3 81/3/3 84/3/3
f 86/1/3 82/1/3 85/1/3
f 87/1/4 88/1/4 91/1/4
f 88/3/4 89/3/4 92/3/4
f 91/1/4 88/1/4 92/1/4
f 92/3/4 89/3/4 93/3/4
f 90/1/4 91/1/4 96/1/4
f 93/3/4 94/3/4 97/3/4
f 91/3/4 92/3/4 97/3/4
f 96/1/4 91/1/4 97/1/4
f 92/3/4 93/3/4 97/3/4
f 97/3/4 94/3/4 98/3/4
f 95/1/4 96/1/4 100/1/4
f 98/3/4 99/3/4 101/3/4
f 100/1/4 96/1/4 101/1/4
f 96/3/4 97/3/4 101/3/4
f 97/3/4 98/3/4 101/3/4
f 101/3/4 99/3/4 102/3/4
f 102/3/4 99/3/4 103/3/4
f 103/3/4 99/3/4 104/3/4
f 104/3/4 99/3/4 105/3/4
f 104/2/4 105/2/4 106/2/4
f 106/2/4 105/2/4 107/2/4
f 102/2/4 103/2/4 108/2/4
f 103/3/4 104/3/4 108/3/4
f 104/2/4 106/2/4 109/2/4
f 108/3/4 104/3/4 109/3/4
f 100/3/4 101/3/4 110/3/4
f 101/3/4 102/3/4 110/3/4
f 108/2/4 109/2/4 110/2/4
f 102/2/4 108/2/4 110/2/4
f 109/2/4 106/2/4 111/2/4
f 110/2/4 109/2/4 111/2/4
f 106/3/4 107/3/4 111/3/4
f 107/2/4 105/2/4 112/2/4
f 111/3/4 107/3/4 112/3/4
f 105/3/4 99/3/4 113/3/4
f 112/2/4 105/2/4 113/2/4
f 113/3/4 99/3/4 114/3/4
f 114/3/4 99/3/4 115/3/4
f 100/3/4 110/3/4 116/3/4
f 111/3/4 112/3/4 116/3/4
f 110/3/4 111/3/4 116/3/4
f 113/3/4 114/3/4 116/3/4
f 112/3/4 113/3/4 116/3/4
f 116/3/4 114/3/4 117/3/4
f 117/3/4 114/3/4 118/3/4
f 114/1/4 115/1/4 119/1/4
f 118/3/4 114/3/4 119/3/4
f 119/1/4 115/1/4 120/1/4
f 117/3/4 118/3/4 121/3/4
f 121/3/4 118/3/4 122/3/4
f 122/3/4 118/3/4 123/3/4
f 118/1/4 119/1/4 124/1/4
f 123/3/4 118/3/4 124/3/4
f 124/1/4 119/1/4 125/1/4
f 122/3/4 123/3/4 126/3/4
f 123/1/4 124/1/4 127/1/4
f 126/3/4 123/3/4 127/3/4
f 127/1/4 124/1/4 128/1/4
f 132/1/5 130/1/5 129/1/5
f 133/3/5 131/3/5 130/3/5
f 133/1/5 130/1/5 132/1/5
f 134/3/5 131/3/5 133/3/5
f 139/1/5 136/1/5 135/1/5
f 140/1/5 136/1/5 139/1/5
f 141/3/5 138/3/5 137/3/5
f 142/3/5 138/3/5 141/3/5
f 147/1/5 144/1/5 143/1/5
f 148/1/5 144/1/5 147/1/5
f 149/3/5 146/3/5 145/3/5
f 150/3/5 146/3/5 149/3/5
f 151/3/6 152/3/6 155/3/6
f 155/3/6 152/3/6 156/3/6
f 153/1/6 154/1/6 157/1/6
f 157/1/6 154/1/6 158/1/6
f 159/3/6 160/3/6 163/3/6
f 163/3/6 160/3/6 164/3/6
f 161/1/6 162/1/6 165/1/6
f 165/1/6 162/1/6 166/1/6
f 167/3/6 168/3/6 170/3/6
f 168/1/6 169/1/6 171/1/6
f 170/3/6 168/3/6 171/3/6
f 171/1/6 169/1/6 172/1/6
