# MagicaVoxel @ Ephtracy

# group
o 

# material
mtllib Glider.mtl
usemtl palette

# normals
vn -1 0 0
vn 1 0 0
vn 0 0 1
vn 0 0 -1
vn 0 -1 0
vn 0 1 0

# texcoords
vt 0.00195312 0.5
vt 0.841797 0.5
vt 0.990234 0.5

# verts
v -1 1.4 0
v -1 1.4 -0.1
v -1 1.5 1
v -1 1.5 0.6
v -1 1.5 0.3
v -1 1.5 0.1
v -1 1.5 0
v -1 1.5 -0.1
v -1 1.5 -0.2
v -1 1.5 -0.4
v -1 1.5 -0.7
v -1 1.5 -1.1
v -1 1.6 1
v -1 1.6 0.6
v -1 1.6 0.3
v -1 1.6 0.1
v -1 1.6 -0.2
v -1 1.6 -0.4
v -1 1.6 -0.7
v -1 1.6 -1.1
v -0.9 1.3 0
v -0.9 1.3 -0.1
v -0.9 1.4 0
v -0.9 1.4 -0.1
v -0.8 1 0
v -0.8 1 -0.1
v -0.8 1.3 0
v -0.8 1.3 -0.1
v -0.8 1.6 1
v -0.8 1.6 0.6
v -0.8 1.6 0.3
v -0.8 1.6 0.1
v -0.8 1.6 -0.2
v -0.8 1.6 -0.4
v -0.8 1.6 -0.7
v -0.8 1.6 -1.1
v -0.8 1.7 1
v -0.8 1.7 0.6
v -0.8 1.7 0.3
v -0.8 1.7 0.1
v -0.8 1.7 -0.2
v -0.8 1.7 -0.4
v -0.8 1.7 -0.7
v -0.8 1.7 -1.1
v -0.6 1.7 1
v -0.6 1.7 0.6
v -0.6 1.7 0.3
v -0.6 1.7 0.1
v -0.6 1.7 -0.2
v -0.6 1.7 -0.4
v -0.6 1.7 -0.7
v -0.6 1.7 -1.1
v -0.6 1.8 1
v -0.6 1.8 0.6
v -0.6 1.8 0.3
v -0.6 1.8 0.1
v -0.6 1.8 -0.2
v -0.6 1.8 -0.4
v -0.6 1.8 -0.7
v -0.6 1.8 -1.1
v -0.5 0 0
v -0.5 0 -0.1
v -0.5 1 0
v -0.5 1 -0.1
v -0.4 1.8 1
v -0.4 1.8 0.6
v -0.4 1.8 0.3
v -0.4 1.8 0.1
v -0.4 1.8 -0.2
v -0.4 1.8 -0.4
v -0.4 1.8 -0.7
v -0.4 1.8 -1.1
v -0.4 1.9 1
v -0.4 1.9 0.6
v -0.4 1.9 0.3
v -0.4 1.9 0.1
v -0.4 1.9 -0.2
v -0.4 1.9 -0.4
v -0.4 1.9 -0.7
v -0.4 1.9 -1.1
v -0.2 1.9 1
v -0.2 1.9 0.6
v -0.2 1.9 0.3
v -0.2 1.9 0.1
v -0.2 1.9 -0.2
v -0.2 1.9 -0.4
v -0.2 1.9 -0.7
v -0.2 1.9 -1.1
v -0.2 2 1
v -0.2 2 0.6
v -0.2 2 0.3
v -0.2 2 0.1
v -0.2 2 -0.2
v -0.2 2 -0.4
v -0.2 2 -0.7
v -0.2 2 -1.1
v 0.2 1.8 -1
v 0.2 1.8 -1.1
v 0.2 1.9 -1
v 0.2 1.9 -1.1
v 0.4 0 0
v 0.4 0 -0.1
v 0.4 1 0
v 0.4 1 -0.1
v 0.4 1.7 1
v 0.4 1.7 0.6
v 0.4 1.7 0.3
v 0.4 1.7 0.1
v 0.4 1.7 -0.2
v 0.4 1.7 -0.4
v 0.4 1.7 -0.7
v 0.4 1.7 -1.1
v 0.4 1.8 1
v 0.4 1.8 0.6
v 0.4 1.8 0.3
v 0.4 1.8 0.1
v 0.4 1.8 -0.2
v 0.4 1.8 -0.4
v 0.4 1.8 -0.7
v 0.4 1.8 -1.1
v 0.5 1 0
v 0.5 1 -0.1
v 0.5 1.1 0
v 0.5 1.1 -0.1
v 0.6 1.6 1
v 0.6 1.6 0.6
v 0.6 1.6 0.3
v 0.6 1.6 0.1
v 0.6 1.6 -0.2
v 0.6 1.6 -0.4
v 0.6 1.6 -0.7
v 0.6 1.6 -1.1
v 0.6 1.7 1
v 0.6 1.7 0.6
v 0.6 1.7 0.3
v 0.6 1.7 0.1
v 0.6 1.7 -0.2
v 0.6 1.7 -0.4
v 0.6 1.7 -0.7
v 0.6 1.7 -1.1
v 0.7 1.1 0
v 0.7 1.1 -0.1
v 0.7 1.3 0
v 0.7 1.3 -0.1
v 0.8 1.3 0
v 0.8 1.3 -0.1
v 0.8 1.4 0
v 0.8 1.4 -0.1
v 0.8 1.5 1
v 0.8 1.5 0.6
v 0.8 1.5 0.3
v 0.8 1.5 0.1
v 0.8 1.5 -0.2
v 0.8 1.5 -0.4
v 0.8 1.5 -0.7
v 0.8 1.5 -1.1
v 0.8 1.6 1
v 0.8 1.6 0.6
v 0.8 1.6 0.3
v 0.8 1.6 0.1
v 0.8 1.6 -0.2
v 0.8 1.6 -0.4
v 0.8 1.6 -0.7
v 0.8 1.6 -1.1
v 0.9 1.4 0
v 0.9 1.4 -0.1
v 0.9 1.5 0
v 0.9 1.5 -0.1
v -0.9 1.4 0
v -0.9 1.4 -0.1
v -0.9 1.5 0
v -0.9 1.5 -0.1
v -0.8 1.3 0
v -0.8 1.3 -0.1
v -0.8 1.4 0
v -0.8 1.4 -0.1
v -0.8 1.5 1
v -0.8 1.5 0.6
v -0.8 1.5 0.3
v -0.8 1.5 0.1
v -0.8 1.5 -0.2
v -0.8 1.5 -0.4
v -0.8 1.5 -0.7
v -0.8 1.5 -1.1
v -0.8 1.6 1
v -0.8 1.6 0.6
v -0.8 1.6 0.3
v -0.8 1.6 0.1
v -0.8 1.6 -0.2
v -0.8 1.6 -0.4
v -0.8 1.6 -0.7
v -0.8 1.6 -1.1
v -0.7 1.1 0
v -0.7 1.1 -0.1
v -0.7 1.3 0
v -0.7 1.3 -0.1
v -0.6 1.6 1
v -0.6 1.6 0.6
v -0.6 1.6 0.3
v -0.6 1.6 0.1
v -0.6 1.6 -0.2
v -0.6 1.6 -0.4
v -0.6 1.6 -0.7
v -0.6 1.6 -1.1
v -0.6 1.7 1
v -0.6 1.7 0.6
v -0.6 1.7 0.3
v -0.6 1.7 0.1
v -0.6 1.7 -0.2
v -0.6 1.7 -0.4
v -0.6 1.7 -0.7
v -0.6 1.7 -1.1
v -0.5 1 0
v -0.5 1 -0.1
v -0.5 1.1 0
v -0.5 1.1 -0.1
v -0.4 0 0
v -0.4 0 -0.1
v -0.4 1 0
v -0.4 1 -0.1
v -0.4 1.7 1
v -0.4 1.7 0.6
v -0.4 1.7 0.3
v -0.4 1.7 0.1
v -0.4 1.7 -0.2
v -0.4 1.7 -0.4
v -0.4 1.7 -0.7
v -0.4 1.7 -1.1
v -0.4 1.8 1
v -0.4 1.8 0.6
v -0.4 1.8 0.3
v -0.4 1.8 0.1
v -0.4 1.8 -0.2
v -0.4 1.8 -0.4
v -0.4 1.8 -0.7
v -0.4 1.8 -1.1
v -0.2 1.8 -1
v -0.2 1.8 -1.1
v -0.2 1.9 -1
v -0.2 1.9 -1.1
v 0.2 1.9 1
v 0.2 1.9 0.6
v 0.2 1.9 0.3
v 0.2 1.9 0.1
v 0.2 1.9 -0.2
v 0.2 1.9 -0.4
v 0.2 1.9 -0.7
v 0.2 1.9 -1.1
v 0.2 2 1
v 0.2 2 0.6
v 0.2 2 0.3
v 0.2 2 0.1
v 0.2 2 -0.2
v 0.2 2 -0.4
v 0.2 2 -0.7
v 0.2 2 -1.1
v 0.4 1.8 1
v 0.4 1.8 0.6
v 0.4 1.8 0.3
v 0.4 1.8 0.1
v 0.4 1.8 -0.2
v 0.4 1.8 -0.4
v 0.4 1.8 -0.7
v 0.4 1.8 -1.1
v 0.4 1.9 1
v 0.4 1.9 0.6
v 0.4 1.9 0.3
v 0.4 1.9 0.1
v 0.4 1.9 -0.2
v 0.4 1.9 -0.4
v 0.4 1.9 -0.7
v 0.4 1.9 -1.1
v 0.5 0 0
v 0.5 0 -0.1
v 0.5 1 0
v 0.5 1 -0.1
v 0.6 1.7 1
v 0.6 1.7 0.6
v 0.6 1.7 0.3
v 0.6 1.7 0.1
v 0.6 1.7 -0.2
v 0.6 1.7 -0.4
v 0.6 1.7 -0.7
v 0.6 1.7 -1.1
v 0.6 1.8 1
v 0.6 1.8 0.6
v 0.6 1.8 0.3
v 0.6 1.8 0.1
v 0.6 1.8 -0.2
v 0.6 1.8 -0.4
v 0.6 1.8 -0.7
v 0.6 1.8 -1.1
v 0.8 1 0
v 0.8 1 -0.1
v 0.8 1.3 0
v 0.8 1.3 -0.1
v 0.8 1.6 1
v 0.8 1.6 0.6
v 0.8 1.6 0.3
v 0.8 1.6 0.1
v 0.8 1.6 -0.2
v 0.8 1.6 -0.4
v 0.8 1.6 -0.7
v 0.8 1.6 -1.1
v 0.8 1.7 1
v 0.8 1.7 0.6
v 0.8 1.7 0.3
v 0.8 1.7 0.1
v 0.8 1.7 -0.2
v 0.8 1.7 -0.4
v 0.8 1.7 -0.7
v 0.8 1.7 -1.1
v 0.9 1.3 0
v 0.9 1.3 -0.1
v 0.9 1.4 0
v 0.9 1.4 -0.1
v 1 1.4 0
v 1 1.4 -0.1
v 1 1.5 1
v 1 1.5 0.6
v 1 1.5 0.3
v 1 1.5 0.1
v 1 1.5 0
v 1 1.5 -0.1
v 1 1.5 -0.2
v 1 1.5 -0.4
v 1 1.5 -0.7
v 1 1.5 -1.1
v 1 1.6 1
v 1 1.6 0.6
v 1 1.6 0.3
v 1 1.6 0.1
v 1 1.6 -0.2
v 1 1.6 -0.4
v 1 1.6 -0.7
v 1 1.6 -1.1
v -1 1.5 1
v -1 1.6 1
v -0.8 1.5 1
v -0.8 1.6 1
v -0.8 1.7 1
v -0.6 1.6 1
v -0.6 1.7 1
v -0.6 1.8 1
v -0.4 1.7 1
v -0.4 1.8 1
v -0.4 1.9 1
v -0.2 1.9 1
v -0.2 2 1
v 0.2 1.9 1
v 0.2 2 1
v 0.4 1.7 1
v 0.4 1.8 1
v 0.4 1.9 1
v 0.6 1.6 1
v 0.6 1.7 1
v 0.6 1.8 1
v 0.8 1.5 1
v 0.8 1.6 1
v 0.8 1.7 1
v 1 1.5 1
v 1 1.6 1
v -1 1.4 0
v -1 1.5 0
v -0.9 1.3 0
v -0.9 1.4 0
v -0.9 1.5 0
v -0.8 1 0
v -0.8 1.3 0
v -0.8 1.4 0
v -0.7 1.1 0
v -0.7 1.3 0
v -0.5 0 0
v -0.5 1 0
v -0.5 1.1 0
v -0.4 0 0
v -0.4 1 0
v 0.4 0 0
v 0.4 1 0
v 0.5 0 0
v 0.5 1 0
v 0.5 1.1 0
v 0.7 1.1 0
v 0.7 1.3 0
v 0.8 1 0
v 0.8 1.3 0
v 0.8 1.4 0
v 0.9 1.3 0
v 0.9 1.4 0
v 0.9 1.5 0
v 1 1.4 0
v 1 1.5 0
v -1 1.4 -0.1
v -1 1.5 -0.1
v -0.9 1.3 -0.1
v -0.9 1.4 -0.1
v -0.9 1.5 -0.1
v -0.8 1 -0.1
v -0.8 1.3 -0.1
v -0.8 1.4 -0.1
v -0.7 1.1 -0.1
v -0.7 1.3 -0.1
v -0.5 0 -0.1
v -0.5 1 -0.1
v -0.5 1.1 -0.1
v -0.4 0 -0.1
v -0.4 1 -0.1
v 0.4 0 -0.1
v 0.4 1 -0.1
v 0.5 0 -0.1
v 0.5 1 -0.1
v 0.5 1.1 -0.1
v 0.7 1.1 -0.1
v 0.7 1.3 -0.1
v 0.8 1 -0.1
v 0.8 1.3 -0.1
v 0.8 1.4 -0.1
v 0.9 1.3 -0.1
v 0.9 1.4 -0.1
v 0.9 1.5 -0.1
v 1 1.4 -0.1
v 1 1.5 -0.1
v -0.2 1.8 -1
v -0.2 1.9 -1
v 0.2 1.8 -1
v 0.2 1.9 -1
v -1 1.5 -1.1
v -1 1.6 -1.1
v -0.8 1.5 -1.1
v -0.8 1.6 -1.1
v -0.8 1.7 -1.1
v -0.6 1.6 -1.1
v -0.6 1.7 -1.1
v -0.6 1.8 -1.1
v -0.4 1.7 -1.1
v -0.4 1.8 -1.1
v -0.4 1.9 -1.1
v -0.2 1.8 -1.1
v -0.2 1.9 -1.1
v -0.2 2 -1.1
v 0.2 1.8 -1.1
v 0.2 1.9 -1.1
v 0.2 2 -1.1
v 0.4 1.7 -1.1
v 0.4 1.8 -1.1
v 0.4 1.9 -1.1
v 0.6 1.6 -1.1
v 0.6 1.7 -1.1
v 0.6 1.8 -1.1
v 0.8 1.5 -1.1
v 0.8 1.6 -1.1
v 0.8 1.7 -1.1
v 1 1.5 -1.1
v 1 1.6 -1.1
v -0.5 0 0
v -0.4 0 0
v 0.4 0 0
v 0.5 0 0
v -0.5 0 -0.1
v -0.4 0 -0.1
v 0.4 0 -0.1
v 0.5 0 -0.1
v -0.8 1 0
v -0.5 1 0
v 0.5 1 0
v 0.8 1 0
v -0.8 1 -0.1
v -0.5 1 -0.1
v 0.5 1 -0.1
v 0.8 1 -0.1
v -0.9 1.3 0
v -0.8 1.3 0
v 0.8 1.3 0
v 0.9 1.3 0
v -0.9 1.3 -0.1
v -0.8 1.3 -0.1
v 0.8 1.3 -0.1
v 0.9 1.3 -0.1
v -1 1.4 0
v -0.9 1.4 0
v 0.9 1.4 0
v 1 1.4 0
v -1 1.4 -0.1
v -0.9 1.4 -0.1
v 0.9 1.4 -0.1
v 1 1.4 -0.1
v -1 1.5 1
v -0.8 1.5 1
v 0.8 1.5 1
v 1 1.5 1
v -1 1.5 0.6
v -0.8 1.5 0.6
v 0.8 1.5 0.6
v 1 1.5 0.6
v -1 1.5 0.3
v -0.8 1.5 0.3
v 0.8 1.5 0.3
v 1 1.5 0.3
v -1 1.5 0.1
v -0.8 1.5 0.1
v 0.8 1.5 0.1
v 1 1.5 0.1
v -1 1.5 0
v -0.9 1.5 0
v 0.9 1.5 0
v 1 1.5 0
v -1 1.5 -0.1
v -0.9 1.5 -0.1
v 0.9 1.5 -0.1
v 1 1.5 -0.1
v -1 1.5 -0.2
v -0.8 1.5 -0.2
v 0.8 1.5 -0.2
v 1 1.5 -0.2
v -1 1.5 -0.4
v -0.8 1.5 -0.4
v 0.8 1.5 -0.4
v 1 1.5 -0.4
v -1 1.5 -0.7
v -0.8 1.5 -0.7
v 0.8 1.5 -0.7
v 1 1.5 -0.7
v -1 1.5 -1.1
v -0.8 1.5 -1.1
v 0.8 1.5 -1.1
v 1 1.5 -1.1
v -0.8 1.6 1
v -0.6 1.6 1
v 0.6 1.6 1
v 0.8 1.6 1
v -0.8 1.6 0.6
v -0.6 1.6 0.6
v 0.6 1.6 0.6
v 0.8 1.6 0.6
v -0.8 1.6 0.3
v -0.6 1.6 0.3
v 0.6 1.6 0.3
v 0.8 1.6 0.3
v -0.8 1.6 0.1
v -0.6 1.6 0.1
v 0.6 1.6 0.1
v 0.8 1.6 0.1
v -0.8 1.6 -0.2
v -0.6 1.6 -0.2
v 0.6 1.6 -0.2
v 0.8 1.6 -0.2
v -0.8 1.6 -0.4
v -0.6 1.6 -0.4
v 0.6 1.6 -0.4
v 0.8 1.6 -0.4
v -0.8 1.6 -0.7
v -0.6 1.6 -0.7
v 0.6 1.6 -0.7
v 0.8 1.6 -0.7
v -0.8 1.6 -1.1
v -0.6 1.6 -1.1
v 0.6 1.6 -1.1
v 0.8 1.6 -1.1
v -0.6 1.7 1
v -0.4 1.7 1
v 0.4 1.7 1
v 0.6 1.7 1
v -0.6 1.7 0.6
v -0.4 1.7 0.6
v 0.4 1.7 0.6
v 0.6 1.7 0.6
v -0.6 1.7 0.3
v -0.4 1.7 0.3
v 0.4 1.7 0.3
v 0.6 1.7 0.3
v -0.6 1.7 0.1
v -0.4 1.7 0.1
v 0.4 1.7 0.1
v 0.6 1.7 0.1
v -0.6 1.7 -0.2
v -0.4 1.7 -0.2
v 0.4 1.7 -0.2
v 0.6 1.7 -0.2
v -0.6 1.7 -0.4
v -0.4 1.7 -0.4
v 0.4 1.7 -0.4
v 0.6 1.7 -0.4
v -0.6 1.7 -0.7
v -0.4 1.7 -0.7
v 0.4 1.7 -0.7
v 0.6 1.7 -0.7
v -0.6 1.7 -1.1
v -0.4 1.7 -1.1
v 0.4 1.7 -1.1
v 0.6 1.7 -1.1
v -0.4 1.8 1
v 0.4 1.8 1
v -0.4 1.8 0.6
v 0.4 1.8 0.6
v -0.4 1.8 0.3
v 0.4 1.8 0.3
v -0.4 1.8 0.1
v 0.4 1.8 0.1
v -0.4 1.8 -0.2
v 0.4 1.8 -0.2
v -0.4 1.8 -0.4
v 0.4 1.8 -0.4
v -0.4 1.8 -0.7
v 0.4 1.8 -0.7
v -0.2 1.8 -1
v 0.2 1.8 -1
v -0.4 1.8 -1.1
v -0.2 1.8 -1.1
v 0.2 1.8 -1.1
v 0.4 1.8 -1.1
v -0.2 1.9 -1
v 0.2 1.9 -1
v -0.2 1.9 -1.1
v 0.2 1.9 -1.1
v -0.5 1 0
v -0.4 1 0
v 0.4 1 0
v 0.5 1 0
v -0.5 1 -0.1
v -0.4 1 -0.1
v 0.4 1 -0.1
v 0.5 1 -0.1
v -0.7 1.1 0
v -0.5 1.1 0
v 0.5 1.1 0
v 0.7 1.1 0
v -0.7 1.1 -0.1
v -0.5 1.1 -0.1
v 0.5 1.1 -0.1
v 0.7 1.1 -0.1
v -0.8 1.3 0
v -0.7 1.3 0
v 0.7 1.3 0
v 0.8 1.3 0
v -0.8 1.3 -0.1
v -0.7 1.3 -0.1
v 0.7 1.3 -0.1
v 0.8 1.3 -0.1
v -0.9 1.4 0
v -0.8 1.4 0
v 0.8 1.4 0
v 0.9 1.4 0
v -0.9 1.4 -0.1
v -0.8 1.4 -0.1
v 0.8 1.4 -0.1
v 0.9 1.4 -0.1
v -1 1.6 1
v -0.8 1.6 1
v 0.8 1.6 1
v 1 1.6 1
v -1 1.6 0.6
v -0.8 1.6 0.6
v 0.8 1.6 0.6
v 1 1.6 0.6
v -1 1.6 0.3
v -0.8 1.6 0.3
v 0.8 1.6 0.3
v 1 1.6 0.3
v -1 1.6 0.1
v -0.8 1.6 0.1
v 0.8 1.6 0.1
v 1 1.6 0.1
v -1 1.6 -0.2
v -0.8 1.6 -0.2
v 0.8 1.6 -0.2
v 1 1.6 -0.2
v -1 1.6 -0.4
v -0.8 1.6 -0.4
v 0.8 1.6 -0.4
v 1 1.6 -0.4
v -1 1.6 -0.7
v -0.8 1.6 -0.7
v 0.8 1.6 -0.7
v 1 1.6 -0.7
v -1 1.6 -1.1
v -0.8 1.6 -1.1
v 0.8 1.6 -1.1
v 1 1.6 -1.1
v -0.8 1.7 1
v -0.6 1.7 1
v 0.6 1.7 1
v 0.8 1.7 1
v -0.8 1.7 0.6
v -0.6 1.7 0.6
v 0.6 1.7 0.6
v 0.8 1.7 0.6
v -0.8 1.7 0.3
v -0.6 1.7 0.3
v 0.6 1.7 0.3
v 0.8 1.7 0.3
v -0.8 1.7 0.1
v -0.6 1.7 0.1
v 0.6 1.7 0.1
v 0.8 1.7 0.1
v -0.8 1.7 -0.2
v -0.6 1.7 -0.2
v 0.6 1.7 -0.2
v 0.8 1.7 -0.2
v -0.8 1.7 -0.4
v -0.6 1.7 -0.4
v 0.6 1.7 -0.4
v 0.8 1.7 -0.4
v -0.8 1.7 -0.7
v -0.6 1.7 -0.7
v 0.6 1.7 -0.7
v 0.8 1.7 -0.7
v -0.8 1.7 -1.1
v -0.6 1.7 -1.1
v 0.6 1.7 -1.1
v 0.8 1.7 -1.1
v -0.6 1.8 1
v -0.4 1.8 1
v 0.4 1.8 1
v 0.6 1.8 1
v -0.6 1.8 0.6
v -0.4 1.8 0.6
v 0.4 1.8 0.6
v 0.6 1.8 0.6
v -0.6 1.8 0.3
v -0.4 1.8 0.3
v 0.4 1.8 0.3
v 0.6 1.8 0.3
v -0.6 1.8 0.1
v -0.4 1.8 0.1
v 0.4 1.8 0.1
v 0.6 1.8 0.1
v -0.6 1.8 -0.2
v -0.4 1.8 -0.2
v 0.4 1.8 -0.2
v 0.6 1.8 -0.2
v -0.6 1.8 -0.4
v -0.4 1.8 -0.4
v 0.4 1.8 -0.4
v 0.6 1.8 -0.4
v -0.6 1.8 -0.7
v -0.4 1.8 -0.7
v 0.4 1.8 -0.7
v 0.6 1.8 -0.7
v -0.6 1.8 -1.1
v -0.4 1.8 -1.1
v 0.4 1.8 -1.1
v 0.6 1.8 -1.1
v -0.4 1.9 1
v -0.2 1.9 1
v 0.2 1.9 1
v 0.4 1.9 1
v -0.4 1.9 0.6
v -0.2 1.9 0.6
v 0.2 1.9 0.6
v 0.4 1.9 0.6
v -0.4 1.9 0.3
v -0.2 1.9 0.3
v 0.2 1.9 0.3
v 0.4 1.9 0.3
v -0.4 1.9 0.1
v -0.2 1.9 0.1
v 0.2 1.9 0.1
v 0.4 1.9 0.1
v -0.4 1.9 -0.2
v -0.2 1.9 -0.2
v 0.2 1.9 -0.2
v 0.4 1.9 -0.2
v -0.4 1.9 -0.4
v -0.2 1.9 -0.4
v 0.2 1.9 -0.4
v 0.4 1.9 -0.4
v -0.4 1.9 -0.7
v -0.2 1.9 -0.7
v 0.2 1.9 -0.7
v 0.4 1.9 -0.7
v -0.4 1.9 -1.1
v -0.2 1.9 -1.1
v 0.2 1.9 -1.1
v 0.4 1.9 -1.1
v -0.2 2 1
v 0.2 2 1
v -0.2 2 0.6
v 0.2 2 0.6
v -0.2 2 0.3
v 0.2 2 0.3
v -0.2 2 0.1
v 0.2 2 0.1
v -0.2 2 -0.2
v 0.2 2 -0.2
v -0.2 2 -0.4
v 0.2 2 -0.4
v -0.2 2 -0.7
v 0.2 2 -0.7
v -0.2 2 -1.1
v 0.2 2 -1.1

# faces
f 7/3/1 2/3/1 1/3/1
f 8/3/1 2/3/1 7/3/1
f 13/1/1 4/1/1 3/1/1
f 14/2/1 5/2/1 4/2/1
f 14/1/1 4/1/1 13/1/1
f 15/1/1 6/1/1 5/1/1
f 15/2/1 5/2/1 14/2/1
f 16/2/1 7/2/1 6/2/1
f 16/1/1 6/1/1 15/1/1
f 16/2/1 8/2/1 7/2/1
f 16/2/1 9/2/1 8/2/1
f 17/1/1 10/1/1 9/1/1
f 17/2/1 9/2/1 16/2/1
f 18/2/1 11/2/1 10/2/1
f 18/1/1 10/1/1 17/1/1
f 19/1/1 12/1/1 11/1/1
f 19/2/1 11/2/1 18/2/1
f 20/1/1 12/1/1 19/1/1
f 23/3/1 22/3/1 21/3/1
f 24/3/1 22/3/1 23/3/1
f 27/3/1 26/3/1 25/3/1
f 28/3/1 26/3/1 27/3/1
f 37/1/1 30/1/1 29/1/1
f 38/2/1 31/2/1 30/2/1
f 38/1/1 30/1/1 37/1/1
f 39/1/1 32/1/1 31/1/1
f 39/2/1 31/2/1 38/2/1
f 40/2/1 33/2/1 32/2/1
f 40/1/1 32/1/1 39/1/1
f 41/1/1 34/1/1 33/1/1
f 41/2/1 33/2/1 40/2/1
f 42/2/1 35/2/1 34/2/1
f 42/1/1 34/1/1 41/1/1
f 43/1/1 36/1/1 35/1/1
f 43/2/1 35/2/1 42/2/1
f 44/1/1 36/1/1 43/1/1
f 53/1/1 46/1/1 45/1/1
f 54/2/1 47/2/1 46/2/1
f 54/1/1 46/1/1 53/1/1
f 55/1/1 48/1/1 47/1/1
f 55/2/1 47/2/1 54/2/1
f 56/2/1 49/2/1 48/2/1
f 56/1/1 48/1/1 55/1/1
f 57/1/1 50/1/1 49/1/1
f 57/2/1 49/2/1 56/2/1
f 58/2/1 51/2/1 50/2/1
f 58/1/1 50/1/1 57/1/1
f 59/1/1 52/1/1 51/1/1
f 59/2/1 51/2/1 58/2/1
f 60/1/1 52/1/1 59/1/1
f 63/3/1 62/3/1 61/3/1
f 64/3/1 62/3/1 63/3/1
f 73/1/1 66/1/1 65/1/1
f 74/2/1 67/2/1 66/2/1
f 74/1/1 66/1/1 73/1/1
f 75/1/1 68/1/1 67/1/1
f 75/2/1 67/2/1 74/2/1
f 76/2/1 69/2/1 68/2/1
f 76/1/1 68/1/1 75/1/1
f 77/1/1 70/1/1 69/1/1
f 77/2/1 69/2/1 76/2/1
f 78/2/1 71/2/1 70/2/1
f 78/1/1 70/1/1 77/1/1
f 79/1/1 72/1/1 71/1/1
f 79/2/1 71/2/1 78/2/1
f 80/1/1 72/1/1 79/1/1
f 89/1/1 82/1/1 81/1/1
f 90/2/1 83/2/1 82/2/1
f 90/1/1 82/1/1 89/1/1
f 91/1/1 84/1/1 83/1/1
f 91/2/1 83/2/1 90/2/1
f 92/2/1 85/2/1 84/2/1
f 92/1/1 84/1/1 91/1/1
f 93/1/1 86/1/1 85/1/1
f 93/2/1 85/2/1 92/2/1
f 94/2/1 87/2/1 86/2/1
f 94/1/1 86/1/1 93/1/1
f 95/1/1 88/1/1 87/1/1
f 95/2/1 87/2/1 94/2/1
f 96/1/1 88/1/1 95/1/1
f 99/1/1 98/1/1 97/1/1
f 100/1/1 98/1/1 99/1/1
f 103/3/1 102/3/1 101/3/1
f 104/3/1 102/3/1 103/3/1
f 113/1/1 106/1/1 105/1/1
f 114/2/1 107/2/1 106/2/1
f 114/1/1 106/1/1 113/1/1
f 115/1/1 108/1/1 107/1/1
f 115/2/1 107/2/1 114/2/1
f 116/2/1 109/2/1 108/2/1
f 116/1/1 108/1/1 115/1/1
f 117/1/1 110/1/1 109/1/1
f 117/2/1 109/2/1 116/2/1
f 118/2/1 111/2/1 110/2/1
f 118/1/1 110/1/1 117/1/1
f 119/1/1 112/1/1 111/1/1
f 119/2/1 111/2/1 118/2/1
f 120/1/1 112/1/1 119/1/1
f 123/3/1 122/3/1 121/3/1
f 124/3/1 122/3/1 123/3/1
f 133/1/1 126/1/1 125/1/1
f 134/2/1 127/2/1 126/2/1
f 134/1/1 126/1/1 133/1/1
f 135/1/1 128/1/1 127/1/1
f 135/2/1 127/2/1 134/2/1
f 136/2/1 129/2/1 128/2/1
f 136/1/1 128/1/1 135/1/1
f 137/1/1 130/1/1 129/1/1
f 137/2/1 129/2/1 136/2/1
f 138/2/1 131/2/1 130/2/1
f 138/1/1 130/1/1 137/1/1
f 139/1/1 132/1/1 131/1/1
f 139/2/1 131/2/1 138/2/1
f 140/1/1 132/1/1 139/1/1
f 143/3/1 142/3/1 141/3/1
f 144/3/1 142/3/1 143/3/1
f 147/3/1 146/3/1 145/3/1
f 148/3/1 146/3/1 147/3/1
f 157/1/1 150/1/1 149/1/1
f 158/2/1 151/2/1 150/2/1
f 158/1/1 150/1/1 157/1/1
f 159/1/1 152/1/1 151/1/1
f 159/2/1 151/2/1 158/2/1
f 160/2/1 153/2/1 152/2/1
f 160/1/1 152/1/1 159/1/1
f 161/1/1 154/1/1 153/1/1
f 161/2/1 153/2/1 160/2/1
f 162/2/1 155/2/1 154/2/1
f 162/1/1 154/1/1 161/1/1
f 163/1/1 156/1/1 155/1/1
f 163/2/1 155/2/1 162/2/1
f 164/1/1 156/1/1 163/1/1
f 167/3/1 166/3/1 165/3/1
f 168/3/1 166/3/1 167/3/1
f 169/3/2 170/3/2 171/3/2
f 171/3/2 170/3/2 172/3/2
f 173/3/2 174/3/2 175/3/2
f 175/3/2 174/3/2 176/3/2
f 177/1/2 178/1/2 185/1/2
f 178/2/2 179/2/2 186/2/2
f 185/1/2 178/1/2 186/1/2
f 179/1/2 180/1/2 187/1/2
f 186/2/2 179/2/2 187/2/2
f 180/2/2 181/2/2 188/2/2
f 187/1/2 180/1/2 188/1/2
f 181/1/2 182/1/2 189/1/2
f 188/2/2 181/2/2 189/2/2
f 182/2/2 183/2/2 190/2/2
f 189/1/2 182/1/2 190/1/2
f 183/1/2 184/1/2 191/1/2
f 190/2/2 183/2/2 191/2/2
f 191/1/2 184/1/2 192/1/2
f 193/3/2 194/3/2 195/3/2
f 195/3/2 194/3/2 196/3/2
f 197/1/2 198/1/2 205/1/2
f 198/2/2 199/2/2 206/2/2
f 205/1/2 198/1/2 206/1/2
f 199/1/2 200/1/2 207/1/2
f 206/2/2 199/2/2 207/2/2
f 200/2/2 201/2/2 208/2/2
f 207/1/2 200/1/2 208/1/2
f 201/1/2 202/1/2 209/1/2
f 208/2/2 201/2/2 209/2/2
f 202/2/2 203/2/2 210/2/2
f 209/1/2 202/1/2 210/1/2
f 203/1/2 204/1/2 211/1/2
f 210/2/2 203/2/2 211/2/2
f 211/1/2 204/1/2 212/1/2
f 213/3/2 214/3/2 215/3/2
f 215/3/2 214/3/2 216/3/2
f 217/3/2 218/3/2 219/3/2
f 219/3/2 218/3/2 220/3/2
f 221/1/2 222/1/2 229/1/2
f 222/2/2 223/2/2 230/2/2
f 229/1/2 222/1/2 230/1/2
f 223/1/2 224/1/2 231/1/2
f 230/2/2 223/2/2 231/2/2
f 224/2/2 225/2/2 232/2/2
f 231/1/2 224/1/2 232/1/2
f 225/1/2 226/1/2 233/1/2
f 232/2/2 225/2/2 233/2/2
f 226/2/2 227/2/2 234/2/2
f 233/1/2 226/1/2 234/1/2
f 227/1/2 228/1/2 235/1/2
f 234/2/2 227/2/2 235/2/2
f 235/1/2 228/1/2 236/1/2
f 237/1/2 238/1/2 239/1/2
f 239/1/2 238/1/2 240/1/2
f 241/1/2 242/1/2 249/1/2
f 242/2/2 243/2/2 250/2/2
f 249/1/2 242/1/2 250/1/2
f 243/1/2 244/1/2 251/1/2
f 250/2/2 243/2/2 251/2/2
f 244/2/2 245/2/2 252/2/2
f 251/1/2 244/1/2 252/1/2
f 245/1/2 246/1/2 253/1/2
f 252/2/2 245/2/2 253/2/2
f 246/2/2 247/2/2 254/2/2
f 253/1/2 246/1/2 254/1/2
f 247/1/2 248/1/2 255/1/2
f 254/2/2 247/2/2 255/2/2
f 255/1/2 248/1/2 256/1/2
f 257/1/2 258/1/2 265/1/2
f 258/2/2 259/2/2 266/2/2
f 265/1/2 258/1/2 266/1/2
f 259/1/2 260/1/2 267/1/2
f 266/2/2 259/2/2 267/2/2
f 260/2/2 261/2/2 268/2/2
f 267/1/2 260/1/2 268/1/2
f 261/1/2 262/1/2 269/1/2
f 268/2/2 261/2/2 269/2/2
f 262/2/2 263/2/2 270/2/2
f 269/1/2 262/1/2 270/1/2
f 263/1/2 264/1/2 271/1/2
f 270/2/2 263/2/2 271/2/2
f 271/1/2 264/1/2 272/1/2
f 273/3/2 274/3/2 275/3/2
f 275/3/2 274/3/2 276/3/2
f 277/1/2 278/1/2 285/1/2
f 278/2/2 279/2/2 286/2/2
f 285/1/2 278/1/2 286/1/2
f 279/1/2 280/1/2 287/1/2
f 286/2/2 279/2/2 287/2/2
f 280/2/2 281/2/2 288/2/2
f 287/1/2 280/1/2 288/1/2
f 281/1/2 282/1/2 289/1/2
f 288/2/2 281/2/2 289/2/2
f 282/2/2 283/2/2 290/2/2
f 289/1/2 282/1/2 290/1/2
f 283/1/2 284/1/2 291/1/2
f 290/2/2 283/2/2 291/2/2
f 291/1/2 284/1/2 292/1/2
f 293/3/2 294/3/2 295/3/2
f 295/3/2 294/3/2 296/3/2
f 297/1/2 298/1/2 305/1/2
f 298/2/2 299/2/2 306/2/2
f 305/1/2 298/1/2 306/1/2
f 299/1/2 300/1/2 307/1/2
f 306/2/2 299/2/2 307/2/2
f 300/2/2 301/2/2 308/2/2
f 307/1/2 300/1/2 308/1/2
f 301/1/2 302/1/2 309/1/2
f 308/2/2 301/2/2 309/2/2
f 302/2/2 303/2/2 310/2/2
f 309/1/2 302/1/2 310/1/2
f 303/1/2 304/1/2 311/1/2
f 310/2/2 303/2/2 311/2/2
f 311/1/2 304/1/2 312/1/2
f 313/3/2 314/3/2 315/3/2
f 315/3/2 314/3/2 316/3/2
f 317/3/2 318/3/2 323/3/2
f 323/3/2 318/3/2 324/3/2
f 319/1/2 320/1/2 329/1/2
f 320/2/2 321/2/2 330/2/2
f 329/1/2 320/1/2 330/1/2
f 321/1/2 322/1/2 331/1/2
f 330/2/2 321/2/2 331/2/2
f 322/2/2 323/2/2 332/2/2
f 331/1/2 322/1/2 332/1/2
f 323/2/2 324/2/2 332/2/2
f 324/2/2 325/2/2 332/2/2
f 325/1/2 326/1/2 333/1/2
f 332/2/2 325/2/2 333/2/2
f 326/2/2 327/2/2 334/2/2
f 333/1/2 326/1/2 334/1/2
f 327/1/2 328/1/2 335/1/2
f 334/2/2 327/2/2 335/2/2
f 335/1/2 328/1/2 336/1/2
f 339/1/3 338/1/3 337/1/3
f 340/1/3 338/1/3 339/1/3
f 342/1/3 341/1/3 340/1/3
f 343/1/3 341/1/3 342/1/3
f 345/1/3 344/1/3 343/1/3
f 346/1/3 344/1/3 345/1/3
f 348/1/3 347/1/3 346/1/3
f 350/1/3 348/1/3 346/1/3
f 350/1/3 349/1/3 348/1/3
f 351/1/3 349/1/3 350/1/3
f 353/1/3 350/1/3 346/1/3
f 354/1/3 350/1/3 353/1/3
f 356/1/3 353/1/3 352/1/3
f 357/1/3 353/1/3 356/1/3
f 359/1/3 356/1/3 355/1/3
f 360/1/3 356/1/3 359/1/3
f 361/1/3 359/1/3 358/1/3
f 362/1/3 359/1/3 361/1/3
f 366/3/3 364/3/3 363/3/3
f 367/3/3 364/3/3 366/3/3
f 369/3/3 366/3/3 365/3/3
f 370/3/3 366/3/3 369/3/3
f 371/3/3 369/3/3 368/3/3
f 372/3/3 369/3/3 371/3/3
f 374/3/3 371/3/3 368/3/3
f 375/3/3 371/3/3 374/3/3
f 376/3/3 374/3/3 373/3/3
f 377/3/3 374/3/3 376/3/3
f 380/3/3 379/3/3 378/3/3
f 381/3/3 379/3/3 380/3/3
f 383/3/3 382/3/3 381/3/3
f 385/3/3 383/3/3 381/3/3
f 385/3/3 384/3/3 383/3/3
f 386/3/3 384/3/3 385/3/3
f 388/3/3 387/3/3 386/3/3
f 389/3/3 387/3/3 388/3/3
f 391/3/3 390/3/3 389/3/3
f 392/3/3 390/3/3 391/3/3
f 393/3/4 394/3/4 396/3/4
f 396/3/4 394/3/4 397/3/4
f 395/3/4 396/3/4 399/3/4
f 399/3/4 396/3/4 400/3/4
f 398/3/4 399/3/4 401/3/4
f 401/3/4 399/3/4 402/3/4
f 398/3/4 401/3/4 404/3/4
f 404/3/4 401/3/4 405/3/4
f 403/3/4 404/3/4 406/3/4
f 406/3/4 404/3/4 407/3/4
f 408/3/4 409/3/4 410/3/4
f 410/3/4 409/3/4 411/3/4
f 411/3/4 412/3/4 413/3/4
f 411/3/4 413/3/4 415/3/4
f 413/3/4 414/3/4 415/3/4
f 415/3/4 414/3/4 416/3/4
f 416/3/4 417/3/4 418/3/4
f 418/3/4 417/3/4 419/3/4
f 419/3/4 420/3/4 421/3/4
f 421/3/4 420/3/4 422/3/4
f 423/1/4 424/1/4 425/1/4
f 425/1/4 424/1/4 426/1/4
f 427/1/4 428/1/4 429/1/4
f 429/1/4 428/1/4 430/1/4
f 430/1/4 431/1/4 432/1/4
f 432/1/4 431/1/4 433/1/4
f 433/1/4 434/1/4 435/1/4
f 435/1/4 434/1/4 436/1/4
f 436/1/4 437/1/4 438/1/4
f 438/1/4 437/1/4 439/1/4
f 439/1/4 440/1/4 442/1/4
f 442/1/4 440/1/4 443/1/4
f 441/1/4 442/1/4 445/1/4
f 445/1/4 442/1/4 446/1/4
f 444/1/4 445/1/4 448/1/4
f 448/1/4 445/1/4 449/1/4
f 447/1/4 448/1/4 451/1/4
f 451/1/4 448/1/4 452/1/4
f 450/1/4 451/1/4 453/1/4
f 453/1/4 451/1/4 454/1/4
f 459/3/5 456/3/5 455/3/5
f 460/3/5 456/3/5 459/3/5
f 461/3/5 458/3/5 457/3/5
f 462/3/5 458/3/5 461/3/5
f 467/3/5 464/3/5 463/3/5
f 468/3/5 464/3/5 467/3/5
f 469/3/5 466/3/5 465/3/5
f 470/3/5 466/3/5 469/3/5
f 475/3/5 472/3/5 471/3/5
f 476/3/5 472/3/5 475/3/5
f 477/3/5 474/3/5 473/3/5
f 478/3/5 474/3/5 477/3/5
f 483/3/5 480/3/5 479/3/5
f 484/3/5 480/3/5 483/3/5
f 485/3/5 482/3/5 481/3/5
f 486/3/5 482/3/5 485/3/5
f 491/1/5 488/1/5 487/1/5
f 492/1/5 488/1/5 491/1/5
f 493/1/5 490/1/5 489/1/5
f 494/1/5 490/1/5 493/1/5
f 495/2/5 492/2/5 491/2/5
f 496/2/5 492/2/5 495/2/5
f 497/2/5 494/2/5 493/2/5
f 498/2/5 494/2/5 497/2/5
f 499/1/5 496/1/5 495/1/5
f 500/1/5 496/1/5 499/1/5
f 501/1/5 498/1/5 497/1/5
f 502/1/5 498/1/5 501/1/5
f 503/2/5 500/2/5 499/2/5
f 504/2/5 500/2/5 503/2/5
f 505/2/5 502/2/5 501/2/5
f 506/2/5 502/2/5 505/2/5
f 508/2/5 500/2/5 504/2/5
f 509/2/5 505/2/5 501/2/5
f 511/2/5 508/2/5 507/2/5
f 512/2/5 500/2/5 508/2/5
f 512/2/5 508/2/5 511/2/5
f 513/2/5 510/2/5 509/2/5
f 513/2/5 509/2/5 501/2/5
f 514/2/5 510/2/5 513/2/5
f 515/1/5 512/1/5 511/1/5
f 516/1/5 512/1/5 515/1/5
f 517/1/5 514/1/5 513/1/5
f 518/1/5 514/1/5 517/1/5
f 519/2/5 516/2/5 515/2/5
f 520/2/5 516/2/5 519/2/5
f 521/2/5 518/2/5 517/2/5
f 522/2/5 518/2/5 521/2/5
f 523/1/5 520/1/5 519/1/5
f 524/1/5 520/1/5 523/1/5
f 525/1/5 522/1/5 521/1/5
f 526/1/5 522/1/5 525/1/5
f 531/1/5 528/1/5 527/1/5
f 532/1/5 528/1/5 531/1/5
f 533/1/5 530/1/5 529/1/5
f 534/1/5 530/1/5 533/1/5
f 535/2/5 532/2/5 531/2/5
f 536/2/5 532/2/5 535/2/5
f 537/2/5 534/2/5 533/2/5
f 538/2/5 534/2/5 537/2/5
f 539/1/5 536/1/5 535/1/5
f 540/1/5 536/1/5 539/1/5
f 541/1/5 538/1/5 537/1/5
f 542/1/5 538/1/5 541/1/5
f 543/2/5 540/2/5 539/2/5
f 544/2/5 540/2/5 543/2/5
f 545/2/5 542/2/5 541/2/5
f 546/2/5 542/2/5 545/2/5
f 547/1/5 544/1/5 543/1/5
f 548/1/5 544/1/5 547/1/5
f 549/1/5 546/1/5 545/1/5
f 550/1/5 546/1/5 549/1/5
f 551/2/5 548/2/5 547/2/5
f 552/2/5 548/2/5 551/2/5
f 553/2/5 550/2/5 549/2/5
f 554/2/5 550/2/5 553/2/5
f 555/1/5 552/1/5 551/1/5
f 556/1/5 552/1/5 555/1/5
f 557/1/5 554/1/5 553/1/5
f 558/1/5 554/1/5 557/1/5
f 563/1/5 560/1/5 559/1/5
f 564/1/5 560/1/5 563/1/5
f 565/1/5 562/1/5 561/1/5
f 566/1/5 562/1/5 565/1/5
f 567/2/5 564/2/5 563/2/5
f 568/2/5 564/2/5 567/2/5
f 569/2/5 566/2/5 565/2/5
f 570/2/5 566/2/5 569/2/5
f 571/1/5 568/1/5 567/1/5
f 572/1/5 568/1/5 571/1/5
f 573/1/5 570/1/5 569/1/5
f 574/1/5 570/1/5 573/1/5
f 575/2/5 572/2/5 571/2/5
f 576/2/5 572/2/5 575/2/5
f 577/2/5 574/2/5 573/2/5
f 578/2/5 574/2/5 577/2/5
f 579/1/5 576/1/5 575/1/5
f 580/1/5 576/1/5 579/1/5
f 581/1/5 578/1/5 577/1/5
f 582/1/5 578/1/5 581/1/5
f 583/2/5 580/2/5 579/2/5
f 584/2/5 580/2/5 583/2/5
f 585/2/5 582/2/5 581/2/5
f 586/2/5 582/2/5 585/2/5
f 587/1/5 584/1/5 583/1/5
f 588/1/5 584/1/5 587/1/5
f 589/1/5 586/1/5 585/1/5
f 590/1/5 586/1/5 589/1/5
f 593/1/5 592/1/5 591/1/5
f 594/1/5 592/1/5 593/1/5
f 595/2/5 594/2/5 593/2/5
f 596/2/5 594/2/5 595/2/5
f 597/1/5 596/1/5 595/1/5
f 598/1/5 596/1/5 597/1/5
f 599/2/5 598/2/5 597/2/5
f 600/2/5 598/2/5 599/2/5
f 601/1/5 600/1/5 599/1/5
f 602/1/5 600/1/5 601/1/5
f 603/2/5 602/2/5 601/2/5
f 604/2/5 602/2/5 603/2/5
f 605/1/5 604/1/5 603/1/5
f 606/1/5 604/1/5 605/1/5
f 607/1/5 605/1/5 603/1/5
f 608/1/5 605/1/5 607/1/5
f 609/1/5 604/1/5 606/1/5
f 610/1/5 604/1/5 609/1/5
f 613/1/5 612/1/5 611/1/5
f 614/1/5 612/1/5 613/1/5
f 615/3/6 616/3/6 619/3/6
f 619/3/6 616/3/6 620/3/6
f 617/3/6 618/3/6 621/3/6
f 621/3/6 618/3/6 622/3/6
f 623/3/6 624/3/6 627/3/6
f 627/3/6 624/3/6 628/3/6
f 625/3/6 626/3/6 629/3/6
f 629/3/6 626/3/6 630/3/6
f 631/3/6 632/3/6 635/3/6
f 635/3/6 632/3/6 636/3/6
f 633/3/6 634/3/6 637/3/6
f 637/3/6 634/3/6 638/3/6
f 639/3/6 640/3/6 643/3/6
f 643/3/6 640/3/6 644/3/6
f 641/3/6 642/3/6 645/3/6
f 645/3/6 642/3/6 646/3/6
f 647/1/6 648/1/6 651/1/6
f 651/1/6 648/1/6 652/1/6
f 649/1/6 650/1/6 653/1/6
f 653/1/6 650/1/6 654/1/6
f 651/2/6 652/2/6 655/2/6
f 655/2/6 652/2/6 656/2/6
f 653/2/6 654/2/6 657/2/6
f 657/2/6 654/2/6 658/2/6
f 655/1/6 656/1/6 659/1/6
f 659/1/6 656/1/6 660/1/6
f 657/1/6 658/1/6 661/1/6
f 661/1/6 658/1/6 662/1/6
f 659/2/6 660/2/6 663/2/6
f 663/2/6 660/2/6 664/2/6
f 661/2/6 662/2/6 665/2/6
f 665/2/6 662/2/6 666/2/6
f 663/1/6 664/1/6 667/1/6
f 667/1/6 664/1/6 668/1/6
f 665/1/6 666/1/6 669/1/6
f 669/1/6 666/1/6 670/1/6
f 667/2/6 668/2/6 671/2/6
f 671/2/6 668/2/6 672/2/6
f 669/2/6 670/2/6 673/2/6
f 673/2/6 670/2/6 674/2/6
f 671/1/6 672/1/6 675/1/6
f 675/1/6 672/1/6 676/1/6
f 673/1/6 674/1/6 677/1/6
f 677/1/6 674/1/6 678/1/6
f 679/1/6 680/1/6 683/1/6
f 683/1/6 680/1/6 684/1/6
f 681/1/6 682/1/6 685/1/6
f 685/1/6 682/1/6 686/1/6
f 683/2/6 684/2/6 687/2/6
f 687/2/6 684/2/6 688/2/6
f 685/2/6 686/2/6 689/2/6
f 689/2/6 686/2/6 690/2/6
f 687/1/6 688/1/6 691/1/6
f 691/1/6 688/1/6 692/1/6
f 689/1/6 690/1/6 693/1/6
f 693/1/6 690/1/6 694/1/6
f 691/2/6 692/2/6 695/2/6
f 695/2/6 692/2/6 696/2/6
f 693/2/6 694/2/6 697/2/6
f 697/2/6 694/2/6 698/2/6
f 695/1/6 696/1/6 699/1/6
f 699/1/6 696/1/6 700/1/6
f 697/1/6 698/1/6 701/1/6
f 701/1/6 698/1/6 702/1/6
f 699/2/6 700/2/6 703/2/6
f 703/2/6 700/2/6 704/2/6
f 701/2/6 702/2/6 705/2/6
f 705/2/6 702/2/6 706/2/6
f 703/1/6 704/1/6 707/1/6
f 707/1/6 704/1/6 708/1/6
f 705/1/6 706/1/6 709/1/6
f 709/1/6 706/1/6 710/1/6
f 711/1/6 712/1/6 715/1/6
f 715/1/6 712/1/6 716/1/6
f 713/1/6 714/1/6 717/1/6
f 717/1/6 714/1/6 718/1/6
f 715/2/6 716/2/6 719/2/6
f 719/2/6 716/2/6 720/2/6
f 717/2/6 718/2/6 721/2/6
f 721/2/6 718/2/6 722/2/6
f 719/1/6 720/1/6 723/1/6
f 723/1/6 720/1/6 724/1/6
f 721/1/6 722/1/6 725/1/6
f 725/1/6 722/1/6 726/1/6
f 723/2/6 724/2/6 727/2/6
f 727/2/6 724/2/6 728/2/6
f 725/2/6 726/2/6 729/2/6
f 729/2/6 726/2/6 730/2/6
f 727/1/6 728/1/6 731/1/6
f 731/1/6 728/1/6 732/1/6
f 729/1/6 730/1/6 733/1/6
f 733/1/6 730/1/6 734/1/6
f 731/2/6 732/2/6 735/2/6
f 735/2/6 732/2/6 736/2/6
f 733/2/6 734/2/6 737/2/6
f 737/2/6 734/2/6 738/2/6
f 735/1/6 736/1/6 739/1/6
f 739/1/6 736/1/6 740/1/6
f 737/1/6 738/1/6 741/1/6
f 741/1/6 738/1/6 742/1/6
f 743/1/6 744/1/6 747/1/6
f 747/1/6 744/1/6 748/1/6
f 745/1/6 746/1/6 749/1/6
f 749/1/6 746/1/6 750/1/6
f 747/2/6 748/2/6 751/2/6
f 751/2/6 748/2/6 752/2/6
f 749/2/6 750/2/6 753/2/6
f 753/2/6 750/2/6 754/2/6
f 751/1/6 752/1/6 755/1/6
f 755/1/6 752/1/6 756/1/6
f 753/1/6 754/1/6 757/1/6
f 757/1/6 754/1/6 758/1/6
f 755/2/6 756/2/6 759/2/6
f 759/2/6 756/2/6 760/2/6
f 757/2/6 758/2/6 761/2/6
f 761/2/6 758/2/6 762/2/6
f 759/1/6 760/1/6 763/1/6
f 763/1/6 760/1/6 764/1/6
f 761/1/6 762/1/6 765/1/6
f 765/1/6 762/1/6 766/1/6
f 763/2/6 764/2/6 767/2/6
f 767/2/6 764/2/6 768/2/6
f 765/2/6 766/2/6 769/2/6
f 769/2/6 766/2/6 770/2/6
f 767/1/6 768/1/6 771/1/6
f 771/1/6 768/1/6 772/1/6
f 769/1/6 770/1/6 773/1/6
f 773/1/6 770/1/6 774/1/6
f 775/1/6 776/1/6 777/1/6
f 777/1/6 776/1/6 778/1/6
f 777/2/6 778/2/6 779/2/6
f 779/2/6 778/2/6 780/2/6
f 779/1/6 780/1/6 781/1/6
f 781/1/6 780/1/6 782/1/6
f 781/2/6 782/2/6 783/2/6
f 783/2/6 782/2/6 784/2/6
f 783/1/6 784/1/6 785/1/6
f 785/1/6 784/1/6 786/1/6
f 785/2/6 786/2/6 787/2/6
f 787/2/6 786/2/6 788/2/6
f 787/1/6 788/1/6 789/1/6
f 789/1/6 788/1/6 790/1/6
